<svg version="1.2" xmlns="http://www.w3.org/2000/svg" viewBox="100 0 778 768" >
	<style>
		.s0 { fill: #f86002 } 
		.s1 { fill: #fd5e00 } 
		.s2 { fill: #fb5e00 } 
		.s3 { fill: #fa5f02 } 
		.s4 { fill: #fc5f02 } 
	</style>
	<g id="Background">
		<path id="Path 2" class="s0" d="m1135.57 690.75c-0.3 1.51-2.02 4.86-3.81 7.44-1.79 2.58-5.06 6.01-7.26 7.62-2.2 1.61-5.69 3.55-7.76 4.31-2.07 0.76-3.76 1.72-3.75 2.13 0 0.41 1.25 0.97 2.76 1.24 1.51 0.27 4.86 1.96 7.44 3.75 2.58 1.79 6.01 5.06 7.62 7.26 1.61 2.2 3.55 5.69 4.31 7.76 0.76 2.07 1.72 3.76 2.13 3.75 0.41 0 0.97-1.25 1.24-2.76 0.27-1.51 1.96-4.86 3.75-7.44 1.79-2.58 5.06-6.01 7.26-7.62 2.2-1.61 5.69-3.55 7.76-4.31 2.07-0.76 3.76-1.72 3.75-2.13 0-0.41-1.25-0.97-2.76-1.24-1.51-0.27-4.86-1.96-7.44-3.75-2.58-1.79-6.01-5.06-7.62-7.26-1.61-2.2-3.37-5.69-3.91-7.75-0.54-2.06-1.47-3.75-2.07-3.75-0.59 0-1.33 1.24-1.64 2.75z"/>
		<path id="Path 3" class="s1" d="m388.89 159.8c-0.76 0.27-1.62 0.77-1.89 1.1-0.27 0.33-2.08 1.47-4 2.53-1.92 1.06-4.38 2.41-5.46 3-1.08 0.59-2.45 1.52-3.04 2.07-0.59 0.55-2.86 2.11-5.04 3.47-2.18 1.36-6.66 4.63-9.96 7.27-3.3 2.63-6.34 4.78-6.75 4.78-0.41-0.01-4.24 2.11-8.5 4.7-4.26 2.6-13.37 8.52-20.25 13.15-6.87 4.64-13.17 8.67-14 8.96-0.83 0.29-3.3 1.67-5.5 3.06-2.2 1.39-6.14 4.46-8.75 6.82-2.82 2.55-9.32 6.44-16 9.59-6.19 2.92-12.15 6.42-13.25 7.78-1.1 1.36-5.6 4.99-10 8.07-4.4 3.07-9.91 6.55-12.25 7.72-2.34 1.17-7.51 4.75-11.5 7.95-3.99 3.2-9.39 7.25-12 9-2.61 1.75-5.09 3.17-5.5 3.15-0.41-0.01-4.8 2.75-9.75 6.13-4.95 3.38-9.9 6.94-11 7.9-1.1 0.97-3.57 2.24-5.5 2.84-1.92 0.6-6.65 3.8-10.5 7.11-3.85 3.32-10.27 8.62-14.26 11.79-6.67 5.29-7.28 6.09-7.5 9.76-0.23 3.86-0.37 4.01-3.99 4.25-2.42 0.16-3.79-0.19-3.87-1-0.06-0.69-0.06-1.81 0-2.5 0.07-0.69-0.24-1.25-0.68-1.25-0.44 0-1.23 0.38-1.75 0.84-0.52 0.46-2.52 1.45-4.45 2.2-1.92 0.74-5.86 3.74-8.75 6.66-2.89 2.91-6.15 5.3-7.25 5.3-1.1 0-2.17 0.34-2.37 0.75-0.21 0.41-2.57 1.38-5.25 2.15-2.69 0.77-8.93 3.79-13.88 6.7-4.95 2.92-10.42 6.57-12.15 8.1-1.74 1.54-5.07 4.37-7.4 6.3-2.34 1.92-4.75 3.68-5.35 3.9-0.61 0.22-2.45 1.53-4.1 2.9-1.65 1.38-5.02 3.47-7.5 4.63-2.48 1.17-5.85 2.99-7.5 4.05-1.65 1.05-3.71 2.62-4.58 3.47-0.91 0.89-1.86 4.21-2.25 7.8-0.65 6.05-0.58 6.31 2.08 7.98 1.51 0.95 2.98 2.01 3.25 2.36 0.27 0.35 2.52 1.66 5 2.91 2.48 1.25 7.74 4.35 11.7 6.89 3.96 2.53 10.71 6.83 15 9.55 4.29 2.71 11.85 7.84 16.8 11.39 4.95 3.55 13.05 8.87 18 11.82 4.95 2.96 10.35 5.65 12 5.98 1.65 0.33 3.45 0.97 4 1.43 0.55 0.45 3.02 1.52 5.5 2.38 4.28 1.49 4.6 1.47 6.5-0.41 1.1-1.1 2.79-2 3.75-2.01 0.96-0.01 1.98 0.43 2.25 0.98 0.28 0.56 2.14 0.75 4.25 0.42 3.32-0.52 4.11-0.2 6.9 2.75 1.73 1.83 4.1 5.13 5.25 7.33 1.16 2.2 2.11 4.67 2.12 5.5 0 0.82 0.64 3.3 1.41 5.5 0.76 2.2 2.89 5.24 4.73 6.76 1.84 1.52 3.79 2.78 4.34 2.79 0.55 0.02 1.94 1.02 3.08 2.24 1.14 1.22 2.94 2.9 4 3.74 1.06 0.84 3.94 2.92 6.42 4.62 2.48 1.7 7.99 5.18 12.25 7.72 4.26 2.55 7.98 4.63 8.25 4.63 0.27 0 3.54 1.9 7.25 4.23 3.71 2.32 8.86 5.81 11.43 7.75 2.58 1.93 6.32 4.64 8.31 6.02 1.99 1.37 4.83 3.48 6.31 4.68 1.49 1.21 6.3 4.87 10.7 8.15 4.4 3.29 8.56 5.79 9.25 5.57 0.69-0.22 1.23-0.06 1.21 0.35-0.02 0.41 2.46 2.44 5.5 4.5 3.05 2.06 5.99 3.75 6.54 3.75 0.55 0 1.21 0.56 1.46 1.25 0.26 0.69 3.45 3.27 7.09 5.75 3.64 2.48 8.04 5.36 9.78 6.41 1.74 1.04 10.82 6.71 20.17 12.58 9.35 5.87 21.05 13.09 26 16.04 4.95 2.95 9.23 5.63 9.5 5.96 0.27 0.33 2.08 1.69 4 3.03 1.92 1.33 4 2.88 4.62 3.45 0.61 0.57 2.19 1.94 3.5 3.05 1.31 1.12 5.53 3.75 9.38 5.85 3.85 2.1 7.31 3.44 7.69 2.97 0.38-0.46 0.83-3.09 1-5.84 0.28-4.52 0.53-4.98 2.56-4.75 2.04 0.23 2.25-0.18 2.25-4.25 0-2.48 0.43-6.64 0.97-9.25 0.53-2.61 1.7-9.92 2.6-16.25 1.14-7.95 1.36-12.58 0.73-15-0.8-3.04-1.48-3.63-5.13-4.5-4.19-0.99-4.21-1.03-4.17-5.5 0.03-3.8-0.47-4.98-3.23-7.63-1.8-1.72-6.42-4.87-10.27-7-3.85-2.13-10.53-6.35-14.84-9.37-4.32-3.03-10.84-6.76-14.5-8.31-3.66-1.55-7.78-4.04-9.16-5.55-1.37-1.51-5.31-4.4-8.75-6.44-5.55-3.29-6.95-3.68-12.5-3.55-5.3 0.12-7.31 0.75-13.25 4.13-6.4 3.64-7.43 3.93-12 3.34-2.75-0.35-6.91-1.76-9.25-3.13-2.34-1.37-5.67-4.63-7.41-7.24-3.13-4.69-3.16-4.86-2.5-13.5l0.66-8.75c-9.07-13.48-11.08-15.35-19.13-20.5-5.15-3.3-10.96-7.58-12.91-9.5-1.95-1.93-5.32-4.85-7.49-6.5-2.17-1.65-5.74-4.17-7.95-5.6-2.21-1.43-4.92-3.6-6.02-4.83-1.1-1.23-4.48-3.62-7.5-5.31-3.02-1.69-6.17-3.66-7-4.38-0.82-0.72-5.1-3.35-9.5-5.86-4.4-2.51-8.23-4.54-8.5-4.53-0.27 0.02-2.75-2.26-5.5-5.07-2.75-2.8-5.79-5.85-6.76-6.76-1.4-1.33-1.76-3.32-1.75-9.91l0.01-8.25c8.52-3.88 12.69-6.81 14.75-9.03 2.06-2.22 4.31-4.02 5-4 0.69 0.02 4.06-3.17 7.5-7.08 3.44-3.91 8.05-8.02 10.25-9.13 2.2-1.12 5.58-3.27 7.5-4.79 1.93-1.52 7.33-5.33 12-8.47 4.68-3.15 9.85-6.96 11.5-8.47 1.65-1.52 5.7-4.55 9-6.75 3.3-2.2 7.13-4.34 8.5-4.75 1.38-0.41 4.52-2.04 7-3.61 2.48-1.58 4.95-2.9 5.5-2.93 0.55-0.03 3.7-1.72 7-3.75 3.3-2.03 7.11-4.6 8.48-5.71 1.36-1.12 4.18-3.83 6.26-6.03 3.18-3.36 3.7-4.48 3.19-7-0.35-1.76-0.15-3.21 0.49-3.5 0.78-0.36 0.77-1.49-0.03-4-0.83-2.58-0.83-4.09-0.01-5.75 0.62-1.24 1.79-2.25 2.62-2.25 0.83 0 1.73 0.45 2 1 0.31 0.62 3.24 0.75 7.75 0.33 5.29-0.48 8.14-0.28 10.53 0.75 2.62 1.14 3.52 1.17 4.45 0.17 0.64-0.69 2.09-1.25 3.22-1.25 1.13 0 3.4-1.17 5.05-2.6 1.65-1.42 4.58-3.4 6.5-4.38 1.92-0.98 5.32-3.75 7.54-6.15 2.35-2.55 7.29-6.03 11.85-8.37 4.3-2.2 8.77-4.9 9.94-6 1.17-1.1 2.36-1.94 2.65-1.86 0.28 0.08 2.32-0.77 4.52-1.88 2.2-1.11 5.8-3.42 8-5.13 2.2-1.7 4.55-3.78 5.22-4.61 0.67-0.84 1.23-3.43 1.25-5.77 0.02-3.3 0.61-4.75 2.61-6.5 2.51-2.19 2.55-2.42 1.48-8.25-0.61-3.3-0.88-8.7-0.6-12 0.28-3.3 0.94-9.6 1.47-14 0.53-4.4 1.48-9.58 2.12-11.5 0.8-2.45 0.84-3.8 0.1-4.5-0.71-0.67-1.89-0.43-3.6 0.75-1.4 0.96-2.79 1.41-3.08 1-0.29-0.41-0.53-2.39-0.54-4.39-0.01-2.1-0.58-3.84-1.34-4.1-0.72-0.26-1.93-0.24-2.7 0.04zm196.11 38.7v30.5c8.07 6.44 11.01 7.83 14.5 8.4 2.75 0.44 6.94 1.78 9.31 2.95 2.37 1.18 4.48 2.82 4.7 3.65 0.21 0.82 2.32 2.85 4.69 4.5 2.36 1.65 5.42 4.01 6.8 5.25 1.37 1.24 2.84 2.26 3.25 2.25 0.41 0 0.77 0.56 0.79 1.25 0.02 0.69 2.15 2.58 4.75 4.2 2.59 1.62 7.97 5.33 11.96 8.25 3.99 2.91 8.04 5.41 9.02 5.55 0.97 0.14 2.88 1.3 4.25 2.57 1.36 1.28 8.1 6.17 14.98 10.85 6.87 4.69 13.85 9.5 15.5 10.69 1.65 1.19 5.48 2.93 8.5 3.86 3.02 0.93 7.3 1.98 9.5 2.33 2.2 0.36 5.35 0.85 7 1.09 1.85 0.28 4.25 1.87 6.25 4.15 1.79 2.04 3.59 5.01 4 6.6 0.41 1.58 2.25 4.06 4.09 5.5 1.84 1.43 4.54 3.89 6 5.45 1.46 1.56 6.26 5 10.66 7.64 4.4 2.64 8.67 5.55 9.5 6.46 0.83 0.91 1.95 1.63 2.5 1.61 0.55-0.03 2.58 1.33 4.5 3.01 1.92 1.68 5.98 4.66 9 6.63 3.02 1.96 9.1 5.95 13.5 8.86 4.4 2.91 10.14 7.35 12.75 9.87 4.63 4.46 4.75 4.73 4.75 10.58 0 3.3-0.39 6.79-0.87 7.75-0.47 0.96-3.24 3.55-6.15 5.75-2.9 2.2-6 4.46-6.88 5.02-0.88 0.56-3.51 2.25-5.85 3.75-2.34 1.5-5.2 3.52-6.36 4.48-1.16 0.96-2.71 2.31-3.43 3-0.72 0.69-1.57 1.25-1.89 1.25-0.31 0-1.26 0.56-2.1 1.25-0.85 0.69-2.09 1.74-2.75 2.34-0.67 0.6-3.02 2.06-5.22 3.26-2.2 1.19-7.15 4.4-11 7.14-3.85 2.74-9.02 6-11.5 7.23-2.48 1.24-5.63 3.2-7 4.35-1.38 1.15-5.2 3.9-8.5 6.1-3.3 2.2-8.7 5.49-12 7.3-3.3 1.81-6.59 3.91-7.32 4.66-0.73 0.75-1.07 1.37-0.75 1.37 0.31 0-1.57 1.91-4.18 4.25-2.61 2.34-5.08 4.7-5.48 5.25-0.41 0.55-0.75 0.66-0.75 0.25-0.01-0.41-1.93-0.15-4.27 0.57-2.34 0.73-6.5 2.87-9.25 4.75-2.75 1.89-5.74 3.88-6.65 4.43-0.9 0.55-3.72 2.46-6.25 4.25-2.53 1.79-5.05 3.25-5.6 3.25-0.55 0-3.7 2.7-7 6-3.3 3.3-6.34 5.99-6.75 5.98-0.41-0.01-2.89 1.34-5.5 3-2.61 1.66-4.75 3.69-4.75 4.52 0 0.82-0.56 1.55-1.25 1.62-0.69 0.06-2.04 0.06-3 0-0.96-0.07-3.21 1.03-5 2.44-1.79 1.41-6.1 4.44-9.59 6.75-3.49 2.3-7.09 4.62-8 5.15-0.91 0.53-3.68 2.31-6.16 3.95-2.48 1.64-4.83 3.46-5.23 4.04-0.41 0.58-0.75 0.71-0.75 0.3-0.01-0.41-2.1 0.71-4.64 2.5-2.54 1.79-5.24 4.15-6 5.25-1.13 1.61-1.4 8.74-1.4 37-0.01 26.97 0.28 35.27 1.25 36.17 0.8 0.74 1.64 0.83 2.27 0.24 0.55-0.51 2.8-2.29 5-3.96 2.2-1.66 4.23-2.99 4.5-2.95 0.27 0.03 6.58-3.37 14-7.56 7.42-4.19 15.08-8.94 17-10.56 1.92-1.63 5.75-4.88 8.5-7.23 2.75-2.35 6.12-4.65 7.5-5.1 1.37-0.46 4.76-2.23 7.52-3.94 2.76-1.71 6.59-3.9 8.5-4.87 1.92-0.97 4.72-2.88 6.23-4.25 1.51-1.37 3.09-2.51 3.5-2.53 0.41-0.02 2.36-1.48 4.34-3.25 1.97-1.76 6.86-5.69 10.86-8.71 4-3.02 7.79-5.99 8.41-6.59 0.63-0.6 2.04-1.37 3.14-1.71 1.1-0.34 3.24-1.76 4.75-3.16 1.51-1.4 4.21-3.28 6-4.19 1.79-0.9 3.92-2.41 4.75-3.34 0.83-0.93 4.2-3.2 7.5-5.04 3.3-1.84 7.35-4.01 9-4.83 1.65-0.82 4.66-2.87 6.68-4.56 2.02-1.69 8.5-5.56 14.4-8.58 8.26-4.24 11.7-6.65 14.98-10.5 3.93-4.61 4.24-5.39 3.99-10-0.15-2.75-1.29-7.25-2.53-10-1.27-2.79-2.28-6.99-2.29-9.5-0.01-2.48 0.56-5.63 1.25-7 0.7-1.38 2.45-3.78 3.89-5.34 1.45-1.56 3.98-3.52 5.63-4.35 1.89-0.96 4.11-1.28 6-0.86 1.65 0.36 5.08 2.09 7.62 3.85 2.54 1.76 7.49 5.37 11 8.02 5.06 3.82 6.9 4.69 8.88 4.18 1.37-0.35 5.2-1.81 8.5-3.25 3.3-1.43 6.67-3.19 7.5-3.9 0.83-0.72 2.06-1.31 2.75-1.32 0.69-0.02 1.25-0.48 1.25-1.03 0-0.55 0.34-0.89 0.75-0.76 0.41 0.13 2.78-1.17 5.25-2.88 2.47-1.71 7.65-4.81 11.5-6.87 3.85-2.07 7.34-4.38 7.75-5.13 0.41-0.75 1.42-1.36 2.25-1.36 0.83 0 3.75-1.58 6.5-3.5 2.75-1.93 4.98-3.84 4.96-4.25-0.02-0.41 1.89-2.03 4.25-3.6 2.36-1.57 7.33-6.07 11.05-10 3.72-3.93 6.78-8.05 6.79-9.15 0.01-1.1 1.69-3.7 3.73-5.77 2.05-2.08 4.39-3.92 5.22-4.1 0.83-0.18 2.17-0.59 3-0.9 0.83-0.32 3.97-1.13 7-1.81 4.31-0.98 6.42-2.18 9.75-5.58 2.34-2.39 4.25-5.02 4.25-5.84 0-0.83-1.24-2.7-2.75-4.16-1.51-1.46-5.11-4.16-8-6-2.89-1.84-5.47-3.34-5.75-3.34-0.28 0-2.86-1.79-5.75-3.98-2.89-2.19-8.06-5.34-11.5-7-3.44-1.66-7.64-4.26-9.34-5.77-1.69-1.51-6.08-4.63-9.75-6.92-3.66-2.29-11.38-6.71-17.16-9.83-5.78-3.11-13.2-6.52-16.5-7.57-3.3-1.05-8.92-3.47-12.5-5.37-3.58-1.91-10.1-5.22-14.5-7.35-4.4-2.14-10.44-4.97-13.43-6.3-5.04-2.24-6.45-2.39-20-2.15-13.25 0.24-14.82 0.08-17.32-1.75-1.51-1.11-3.48-3.47-4.37-5.26-1.26-2.52-1.48-4.87-1-10.5l0.62-7.25c-7.38-8.58-11.01-11.18-18-14.76-8.75-4.48-9.86-5.39-14-11.52-2.48-3.66-6.36-8.13-8.63-9.93-2.27-1.81-6.54-5.36-9.5-7.89-2.95-2.53-7.62-5.72-10.37-7.09-2.75-1.38-8.38-4.15-12.5-6.17-4.13-2.01-8.93-4.89-10.68-6.4-1.74-1.51-5.57-4.45-8.5-6.54-2.92-2.08-8.02-5.57-11.32-7.76-3.3-2.18-7.58-5.45-9.5-7.28-1.92-1.82-5.98-4.9-9-6.85-3.02-1.94-7.75-4.2-10.5-5.02-2.75-0.82-5.9-1.38-7-1.25-1.1 0.14-4.48 0.75-7.5 1.37-3.02 0.61-6.06 1.11-6.75 1.1-0.69-0.01-2.15-0.91-3.25-2.01-1.39-1.39-2.36-1.7-3.2-1-0.66 0.55-1.45 1.02-1.75 1.04-0.3 0.02-1.08-1.22-1.73-2.75-0.65-1.53-1.35-4.93-1.57-7.54-0.29-3.63-0.78-4.75-2.07-4.75-1.54 0-1.68 2.59-1.68 30.5z"/>
		<path id="Path 4" fill-rule="evenodd" class="s2" d="m392.24 147.07c0.4-0.04 1 2.97 1.33 6.68 0.33 3.71 1.23 7.76 2.01 9 1.3 2.06 1.25 2.25-0.58 2.25-1.76 0-2-0.67-2-5.5 0-3.02-0.23-5.5-0.5-5.5-0.27 0-1.51 0.53-2.75 1.18-1.24 0.65-3.15 2.04-4.25 3.1-1.1 1.05-5.6 4.3-10 7.2-4.4 2.91-10.02 6.98-12.5 9.04-2.48 2.07-6.3 4.54-8.5 5.5-2.2 0.95-7.15 3.72-11 6.13-3.85 2.42-8.8 5.63-11 7.14-2.2 1.51-9.4 6.26-16 10.55-6.6 4.3-16.05 10.36-21 13.47-4.95 3.11-10.35 6.85-12 8.3-1.65 1.45-4.35 3.27-6 4.03-1.65 0.76-3.88 1.95-4.96 2.62-1.09 0.68-4.35 2.93-7.25 4.99-2.91 2.06-5.74 3.75-6.29 3.75-0.55 0-2.29 1.24-3.87 2.75-1.57 1.51-7.54 5.93-13.25 9.81-5.71 3.88-12.4 8.01-14.88 9.18-2.48 1.16-5.18 2.84-6 3.73-0.82 0.89-1.95 1.61-2.5 1.6-0.55-0.01-2.35 1.02-4 2.29-1.65 1.27-6.38 4.26-10.5 6.65-4.13 2.38-9.75 5.99-12.5 8.01-2.75 2.02-7.93 5.13-11.5 6.9-3.57 1.77-7.3 3.98-8.28 4.9-0.98 0.93-1.76 1.23-1.74 0.68 0.03-0.55 0.38-1.51 0.79-2.14 0.4-0.62 2.53-1.89 4.73-2.82 2.2-0.93 5.12-2.97 6.5-4.54 1.37-1.56 3.06-3.55 3.75-4.42 0.69-0.87 1.25-2.03 1.25-2.58 0-0.55 1.01-1.05 2.25-1.12 1.24-0.06 2.59-0.06 3 0 0.41 0.07 1.41-1.34 2.23-3.13 0.81-1.79 1.48-2.69 1.5-2 0.01 0.69 0.47 1.02 1.02 0.75 0.55-0.27 0.77-0.95 0.5-1.5-0.27-0.55 0.4-1 1.5-1 1.1 0 2.34-0.03 2.75-0.07 0.41-0.04 1.43-0.72 2.25-1.5 0.82-0.79 1.89-1.1 2.37-0.68 0.49 0.42 0.6-0.25 0.25-1.5-0.55-1.99-0.29-2.22 2.27-2 2.31 0.2 2.66-0.02 1.75-1.04-0.63-0.72-0.91-1.33-0.64-1.36 0.27-0.04 2.07-0.18 4-0.33 1.93-0.14 6.65-1.43 10.5-2.85 3.85-1.43 7.59-3.4 8.31-4.38 0.71-0.99 2.85-3.48 4.75-5.54 1.89-2.06 3.89-3.53 4.44-3.25 0.55 0.28 1.56-0.26 2.25-1.19 1-1.36 1-1.56 0-1-0.69 0.38-1.27 0.35-1.29-0.06-0.03-0.41 0.53-1.31 1.25-1.99 0.71-0.69 1.64-0.91 2.07-0.5 0.43 0.41 0.76-0.16 0.74-1.26-0.02-1.28 0.96-2.39 2.72-3.07 1.52-0.59 3.15-1.26 3.64-1.5 0.48-0.24 2.39-1.89 4.25-3.68 1.85-1.79 3.82-3.03 4.37-2.75 0.55 0.28 1.88-0.29 2.95-1.25 1.08-0.96 2.76-2.4 3.75-3.19 0.99-0.8 3.15-1.51 4.8-1.58 1.65-0.08 5.02-1.41 7.5-2.97 2.48-1.56 6.3-4.85 8.5-7.32 2.2-2.47 7.15-6.57 11-9.1 3.85-2.54 8.48-5.28 10.29-6.1 1.81-0.82 3.27-1.83 3.25-2.24-0.02-0.41 0.75-0.45 1.71-0.09 0.96 0.36 1.41 0.36 1 0-0.41-0.36 0.83-2.01 2.75-3.66 2.97-2.55 4.11-2.92 7.5-2.5 3.64 0.46 4.4 0.12 8.43-3.75 2.43-2.34 5.56-5.15 6.95-6.25 1.39-1.1 2.55-2.56 2.57-3.25 0.03-0.69 1.74-2.09 3.8-3.13 2.06-1.03 5.1-2.99 6.75-4.36 1.65-1.36 4.46-3.22 6.25-4.12 1.79-0.9 5.61-3.44 8.5-5.64 2.89-2.2 5.81-3.78 6.5-3.5 0.69 0.27 1.14 0.04 1-0.53-0.14-0.56 1.08-1.8 2.71-2.75 1.62-0.94 3.42-2.09 4-2.53 0.57-0.45 2.39-1.65 4.04-2.68 1.65-1.02 3.33-1.9 3.74-1.94zm15.52 13.94c0.14 0 0.17 11.58 0.06 25.74-0.1 14.16-0.47 26.88-0.82 28.25-0.57 2.25-1.25 2.55-6.76 3-6.11 0.5-6.12 0.5-4.14-1.5 1.79-1.82 1.88-2.55 0.91-8-0.58-3.3-0.83-8.7-0.55-12 0.28-3.3 0.95-9.6 1.48-14 0.53-4.4 1.81-10.47 2.85-13.5 1.25-3.63 2.71-5.92 4.3-6.74 1.32-0.67 2.53-1.24 2.67-1.25zm217.49 19.01c3.85 0.02 6.45 0.73 9.75 2.67 2.48 1.45 5.52 3.58 6.76 4.73 1.24 1.14 6.3 6.02 11.25 10.83 4.94 4.81 8.76 8.97 8.49 9.25-0.27 0.28-2.41-0.87-4.75-2.55-2.34-1.68-8.52-5.79-13.75-9.14-5.23-3.34-12.54-8.04-16.25-10.44-3.71-2.4-6.75-4.59-6.75-4.87 0-0.28 2.36-0.49 5.25-0.48zm-45.25 10.64c1.92 0.33 3.84 0.77 4.25 0.97 0.41 0.2 0.75 8.81 0.75 19.12 0.01 16.32 0.24 19.14 1.82 21.75 0.99 1.65 3.35 3.73 5.24 4.62 2.16 1.02 2.97 1.86 2.19 2.25-0.69 0.35-4.51-1.54-8.5-4.18-5.1-3.39-8.43-6.55-15.25-16.53l-0.71-23.16 3.35-2.72c2.74-2.22 4.01-2.61 6.86-2.12zm-186.27 36.84c0.32 6.71 0.21 7.11-2.7 9.75-1.66 1.51-3.03 3.2-3.03 3.75 0 0.55-1.01 1.96-2.25 3.12-1.79 1.69-2.66 1.91-4.25 1.08-1.1-0.57-3.13-0.82-4.5-0.54-2.43 0.49-2.41 0.43 0.65-2.33 1.74-1.55 4.83-3.95 6.88-5.33 2.05-1.37 4.79-3.51 6.1-4.75 1.76-1.67 2.42-3.46 2.57-7 0.13-3.37 0.29-2.72 0.53 2.25zm302.52 2.47c0.41 0.01 1.54 0.42 2.5 0.9 0.96 0.48 3.55 2.57 9.75 8.45l-4-2.84c-2.2-1.57-5.12-3.68-6.5-4.7-1.37-1.02-2.16-1.83-1.75-1.81zm-350.9 34.04c0.46 0-1.45 2.01-4.25 4.49-3.35 2.95-6.04 4.51-10.6 4.57l2.5-1.93c1.37-1.07 4.52-3.1 7-4.53 2.48-1.42 4.88-2.59 5.35-2.6zm338.13 33.24c5.21 3.44 9.48 6.59 9.5 7 0.01 0.41-1.11 0.75-2.48 0.75-1.61 0-3.3-1.07-4.75-3-1.24-1.66-3.49-3.23-5-3.5-1.58-0.29-3.6-1.77-4.75-3.5-1.1-1.65-2-3.23-1.99-3.5 0-0.28 4.27 2.31 9.47 5.75zm-383.73-2.17c0.14-0.04 0.25 0.15 0.25 0.42 0 0.27-1.69 2.27-3.75 4.43-2.06 2.16-4.47 4.97-5.36 6.25-0.88 1.27-2.68 2.37-4 2.44-1.31 0.06-4.41 1.08-6.89 2.26-2.48 1.18-5.06 2.14-5.75 2.13-0.69 0 0.66-1.72 3-3.81 2.34-2.1 6.5-5.36 9.25-7.26 2.75-1.89 6.13-3.97 7.5-4.62 1.38-0.65 3.17-1.4 4-1.67 0.83-0.27 1.61-0.53 1.75-0.57zm-155.98 12.92c0.68 0 1.69 1.24 2.24 2.75 0.56 1.51 0.9 2.82 0.75 2.91-0.14 0.08-2.96 2.13-12.26 8.94l0.66-4.55c0.46-3.14 1.39-5.06 3-6.19 1.83-1.29 2.71-1.4 4.04-0.5 0.94 0.62 2.06 0.81 2.5 0.41 0.44-0.4 0.13-1.41-0.68-2.25-1.05-1.07-1.12-1.52-0.25-1.52zm589.23 23l3.75 2.19c2.06 1.21 4.54 2.67 5.5 3.25 0.97 0.58 1.76 1.4 1.75 1.81 0 0.41-0.56 0.54-1.25 0.28-0.69-0.26-2.6-0.72-4.25-1.02-1.65-0.29-3.02-0.65-3.05-0.77-0.02-0.13-0.59-1.48-1.25-2.99zm-617.06 2.01c2.02 0.01 0.8 1.11-5.79 5.25-4.6 2.88-11.8 7.75-16 10.81-4.21 3.07-10.8 7.3-14.65 9.41-5.89 3.23-6.76 3.49-5.49 1.63 0.83-1.21 3.16-2.89 5.17-3.73 2.18-0.91 4.82-3.23 6.49-5.7 1.56-2.3 3.1-4.41 3.43-4.68 0.33-0.27 1.02-1.51 1.54-2.75 0.51-1.24 1.55-2.25 2.29-2.25 0.75 0 2.31-0.88 3.47-1.96 1.56-1.46 2.55-1.72 3.85-1 0.96 0.53 2.99 0.97 4.5 0.98 1.77 0.01 3.8-1.06 5.69-3 1.77-1.82 3.95-3.02 5.5-3.01zm743.56 1.47c2.2 0.29 5.7 1.77 7.78 3.28 2.07 1.51 5 3.36 6.5 4.13 1.5 0.76 4.63 2.9 6.97 4.75 2.34 1.85 4.48 3.36 4.75 3.36 0.28 0 2.19 1.13 4.25 2.5 2.06 1.38 4.54 2.51 5.5 2.5 0.96 0 1.57 0.34 1.35 0.75-0.22 0.41 0.79 0.84 2.25 0.95 1.46 0.11 2.88 0.57 3.15 1.02 0.28 0.45 1.63 1.33 3 1.96 1.38 0.63 3.81 2.19 5.4 3.48 1.59 1.29 5.53 4.48 8.75 7.09 5.43 4.41 5.81 4.98 5.26 8-0.33 1.79-0.79 3.48-1.03 3.75-0.24 0.27-0.43-0.62-0.42-2 0.02-2.02-1.15-3.17-6.15-6-3.39-1.93-7.33-4.18-8.75-5-1.43-0.82-5.4-3.64-8.82-6.25-3.43-2.61-8.94-6.1-12.24-7.75-3.3-1.65-7.91-4.37-10.25-6.05-2.34-1.67-7.4-5.1-11.25-7.61-3.85-2.51-7.67-5.2-8.5-5.98-1.3-1.23-0.98-1.35 2.5-0.88zm-112 5.29l4 2.6c2.2 1.43 4.56 3.06 5.25 3.62 0.69 0.55 1.48 1.01 1.75 1.01 0.28 0 4.66 3.06 9.75 6.79 5.09 3.73 10.38 7.49 11.75 8.34 1.38 0.86 4.08 3.23 6 5.27 1.93 2.04 5.64 5.03 13 9.6l0.25 6.07c0.14 3.34-0.01 6.83-0.34 7.75-0.32 0.93-2.34 2.81-4.49 4.18-2.15 1.38-5.48 4.21-7.41 6.3-1.93 2.08-3.85 3.77-4.26 3.75-0.41-0.03-2.66 1.18-5 2.69-2.34 1.51-4.47 2.97-4.75 3.25-0.27 0.28-1.85 1.18-3.5 1.99-1.65 0.81-4.35 2.55-6 3.87-1.65 1.32-4.8 3.3-7 4.41-2.2 1.11-9.17 5.48-15.5 9.72-6.32 4.23-12.96 8.45-14.75 9.36-1.79 0.91-4.2 2.45-5.37 3.41-1.17 0.96-3.53 3.01-5.25 4.55-1.72 1.54-5.83 4.18-9.13 5.87-3.3 1.69-8.25 4.6-11 6.47-2.75 1.86-6.44 4.4-8.21 5.63-1.77 1.22-5.37 3.57-8 5.21-2.63 1.64-5.85 3.89-7.15 5-1.3 1.11-3.78 3.25-5.5 4.75-1.73 1.5-5.75 3.52-8.93 4.5-1.97 0.6-3.54 0.96-4.65 1.07q0-0.28-0.33-1.05c-0.6-1.45-0.31-1.67 1.77-1.25 1.76 0.35 3.17-0.19 4.75-1.83 1.24-1.27 3-3.19 3.91-4.25 0.9-1.05 3.04-3.16 4.75-4.67 1.7-1.51 3.77-2.75 4.59-2.75 0.83 0 1.28-0.45 1-1-0.27-0.55-0.16-1.03 0.25-1.07 0.41-0.05 1.88-0.28 3.25-0.52 1.38-0.25 3.85-0.88 5.5-1.42 1.85-0.59 3.77-2.36 5-4.57 1.1-1.98 3.05-4.58 4.33-5.76 1.28-1.19 2.63-2.05 3-1.91 0.37 0.14 0.67-0.2 0.67-0.75 0-0.55 0.45-1.04 1-1.09 0.55-0.04 1.56-0.49 2.25-1 0.69-0.5 2.15-0.68 3.25-0.41 1.1 0.27 3.01-0.03 4.25-0.67 1.24-0.65 3.38-2.22 4.75-3.5 1.38-1.27 4.53-3.88 7-5.8 2.48-1.92 6.47-4.51 8.87-5.76 2.4-1.25 5.33-3.8 6.5-5.68 1.17-1.87 3.37-4.23 4.88-5.25 1.51-1.01 3.2-1.61 3.75-1.34 0.55 0.27 1.23 0.05 1.5-0.5 0.28-0.55-0.06-1.01-0.75-1.02q-1.23-0.02 0.25-0.93c0.91-0.55 2.19-0.55 3.25 0.02 1.08 0.57 3.58 0.57 6.5 0 2.61-0.5 4.86-1.4 5-2 0.14-0.59 0.7-1.07 1.25-1.07 0.55 0 1.79-0.64 2.75-1.43 0.96-0.78 5.31-4.27 9.65-7.75 4.34-3.47 8.33-7.44 8.85-8.82 0.52-1.37 2.37-3.73 4.1-5.23 1.73-1.51 4.05-2.73 5.15-2.73 1.1 0.01 3.01-1.01 4.25-2.26 1.23-1.26 2.52-3.85 2.87-5.78 0.35-1.93 0.18-4.4-0.37-5.5-0.55-1.1-3.19-3.53-5.87-5.41-2.68-1.87-5.78-4.78-6.88-6.46-1.44-2.21-3.11-3.28-6-3.83-2.2-0.43-4.9-1.57-6-2.55-1.1-0.98-4.25-3.43-7-5.45-2.75-2.02-6.12-5.05-7.5-6.74-1.37-1.69-2.95-3.05-3.5-3.04-0.55 0.02-2.12-1.16-3.5-2.61zm-94.97 147.07q-1.05 0.03-1.31-0.34-0.7-1 0.77 0 0.32 0.22 0.54 0.34zm0.53-0.04q0 0.34-0.53 0.04 0.24-0.01 0.53-0.04zm-424.09-144.76c0.25-0.02-0.42 0.75-1.5 1.71-1.08 0.96-3.17 2.39-4.65 3.16-1.47 0.78-2.94 2.24-3.25 3.25-0.31 1.01-1.47 2.07-2.57 2.34-1.1 0.28-4.95 3.43-8.56 7-3.61 3.58-7.21 6.5-8 6.5-0.79 0-2.23 1.34-3.19 2.97-0.96 1.63-2.99 3.65-4.5 4.5-1.51 0.84-3.31 1.53-4 1.52-0.69 0-2.04 0.9-3 2-0.96 1.11-2.22 3.25-2.79 4.76-0.58 1.51-0.82 3.88-0.53 5.25 0.28 1.38 1.65 3.29 3.04 4.25 1.39 0.96 4.22 4.22 6.28 7.24 2.45 3.59 5.14 6.15 7.75 7.39 2.2 1.05 4.9 2.87 8 6.19l-5.5-2.05c-3.02-1.13-6.85-2.82-8.5-3.75-1.65-0.93-4.12-2.88-5.5-4.34-1.37-1.46-4.19-4.52-6.25-6.79-2.06-2.28-3.82-5.15-3.9-6.39-0.09-1.24-0.2-4.27-0.25-6.75-0.05-2.47 0.35-4.95 0.9-5.5 0.55-0.55 2.35-1.66 4-2.47 1.65-0.8 4.8-3.38 7-5.73 2.2-2.35 6.48-5.63 9.5-7.27 3.03-1.65 7.08-3.79 9-4.76 1.93-0.97 3.95-2.24 4.5-2.82 0.55-0.58 3.03-2.65 5.5-4.6 2.48-1.95 5.85-4.27 7.5-5.16 1.65-0.88 3.21-1.63 3.47-1.65zm-177.47 25.96c0.83 0 1.73 0.68 2 1.5 0.28 0.83 1.18 1.5 2 1.5 0.83 0 1.73 0.45 2 1 0.28 0.55 0.16 0.95-0.25 0.88-0.41-0.06-1.42-0.07-2.25-0.02-0.82 0.04-1.16 0.44-0.75 0.86 0.41 0.43-0.15 1.34-1.25 2.03-1.12 0.7-1.71 1.8-1.34 2.5 0.36 0.69 0.58 4.06 0.5 7.5-0.14 5.56 0.09 6.38 2.09 7.4 1.24 0.63 2.48 1.42 2.75 1.76 0.28 0.33 2.08 1.77 4 3.19 1.93 1.42 4.18 3.23 5 4.01 0.83 0.78 5.78 4 11 7.15 5.23 3.16 12.65 7.76 16.5 10.23 3.85 2.47 8.8 5.45 11 6.61 2.2 1.17 6.48 3.96 9.5 6.2 3.03 2.24 5.73 4.34 6 4.68 0.28 0.34 3.86 2.85 7.96 5.57 4.11 2.72 7.93 5.42 8.5 5.99 0.57 0.58 2.56 1.7 4.42 2.5 1.86 0.81 3.89 2.03 4.5 2.73 0.89 1.02 0.3 1.2-2.88 0.89-2.2-0.21-5.01-0.45-6.25-0.52-1.52-0.09-2.09-0.62-1.75-1.64 0.32-0.95-0.59-2.05-2.5-3-1.65-0.82-3.67-1.5-4.5-1.5-0.82 0-3.07-1.24-5-2.75-1.92-1.51-3.5-3.42-3.49-4.25 0-0.82-0.79-1.6-1.75-1.73-0.97-0.13-2.57-0.36-3.57-0.5-0.99-0.15-2.31-1.17-2.92-2.27-0.62-1.1-1.83-2.55-2.69-3.22-0.87-0.67-2.37-1.23-3.33-1.25-0.96-0.01-1.75-0.48-1.75-1.03 0-0.55-1.46-1.21-3.25-1.46-1.79-0.26-4.15-1.4-5.25-2.54-1.1-1.13-1.66-2.05-1.25-2.03 0.41 0.02-0.71-1.2-2.5-2.7-1.79-1.51-3.47-3.03-3.75-3.38-0.27-0.36-4.21-3.18-8.75-6.27-4.54-3.09-8.7-5.62-9.25-5.62-0.55 0-1-0.45-1-1 0-0.55-1.24-1.5-2.75-2.11-1.51-0.62-4.32-1.08-6.25-1.04-1.92 0.04-3.72-0.27-4-0.69-0.27-0.42-2.28-1.87-4.46-3.21-2.18-1.35-4.45-2.9-5.05-3.45-0.67-0.61-0.97-4.1-0.78-9 0.17-4.4 0.42-8.97 0.55-10.15 0.13-1.19 0.67-1.86 1.2-1.5 0.59 0.39 0.69-0.23 0.25-1.6-0.48-1.52-0.22-2.57 0.79-3.25 1.06-0.7 1.63-0.63 1.92 0.25 0.24 0.69 0.46 0.46 0.5-0.5 0.05-0.96 0.76-1.75 1.58-1.75zm828.18 53.02c0.09-0.01-0.36 0.88-1 1.98-0.65 1.11-1.74 2.01-2.43 2-0.69 0-1.23 0.34-1.22 0.75 0.02 0.41-2.33 2.33-5.21 4.25-2.88 1.93-6.05 3.84-7.03 4.25-0.98 0.41-1.78 0.41-1.78 0 0.01-0.41 1.66-1.87 3.66-3.25 2.01-1.37 6.16-4.18 9.24-6.23 3.08-2.05 5.67-3.74 5.77-3.75zm-692.33 59.35c1.73 1.36 6.19 4.08 9.9 6.05 3.71 1.97 9.9 5.83 13.75 8.58 3.85 2.75 9.59 6.44 12.75 8.2 3.16 1.76 9.58 5.64 14.25 8.62 4.68 2.98 12.23 7.96 16.79 11.05 4.55 3.1 8.27 5.97 8.25 6.38-0.02 0.41 0.52 0.77 1.21 0.79 0.69 0.02 3.5 1.69 6.25 3.71 2.75 2.01 7.07 5.48 9.6 7.71 2.53 2.22 8.16 5.92 12.5 8.22 4.35 2.3 10.83 6.46 14.4 9.25 3.58 2.78 8.45 6.3 10.82 7.82 2.37 1.51 6.42 4.13 9 5.81 2.58 1.68 8.28 5.02 12.68 7.42 4.4 2.4 8.68 5.03 9.5 5.84 0.83 0.82 4.17 3.33 7.44 5.58 3.26 2.26 9.18 6.13 13.14 8.6 3.97 2.48 10.41 6.64 14.32 9.25 3.9 2.61 7.55 4.53 8.1 4.25 0.55-0.27 1-2.75 1-5.5 0-4.8 0.1-4.98 2.5-4.5 2.45 0.49 2.5 0.37 2.5-5.5 0-3.3 0.44-8.14 0.97-10.75 0.53-2.61 1.71-9.92 2.62-16.25 1.29-8.99 1.41-12.32 0.53-15.25-0.99-3.33-0.92-3.75 0.63-3.78 0.96-0.02 2.47 0.77 3.34 1.75 1.37 1.54 1.57 5.59 1.41 58.77l-7.2 4.01-2.9-2.32c-2.71-2.17-2.94-2.21-3.58-0.5-0.37 1-0.72 2.95-0.76 4.32-0.05 1.38-0.51 3.18-1.04 4-0.78 1.23-1.62 0.76-4.73-2.63-2.08-2.27-4.91-4.47-6.29-4.88-1.37-0.42-3.22-1.26-4.11-1.87-0.89-0.62-1.58-1.34-1.52-1.62 0.05-0.27-1.25-1.97-2.89-3.78-2.22-2.44-3.81-3.27-6.23-3.25-1.79 0.02-3.25-0.42-3.25-0.97 0-0.55-0.79-1.89-1.75-2.98-1.12-1.27-2.56-1.81-4-1.5-1.24 0.27-2.25 0.03-2.25-0.52 0-0.55-0.45-0.77-1-0.5-0.55 0.28-1.56-0.19-2.25-1.04-0.69-0.85-0.91-1.53-0.5-1.5 0.41 0.02-0.15-0.86-1.25-1.96-1.1-1.1-2-2.45-2-3 0-0.55-1.01-1.25-2.25-1.57-1.24-0.31-3.5-1.1-5.04-1.75-1.53-0.65-2.77-1.74-2.75-2.43 0.02-0.69-0.86-1.7-1.96-2.25-1.1-0.55-2.45-0.77-3-0.5-0.55 0.28-1 0.05-1-0.5 0-0.55-0.56-1.02-1.25-1.04-0.69-0.02-2.94-2.27-5-5-2.65-3.51-4.63-5.11-6.75-5.46-1.65-0.27-3.21-1.06-3.47-1.75-0.26-0.69-2.62-2.36-5.25-3.72-2.63-1.37-5.45-3.33-6.28-4.37-0.82-1.04-2.29-2.74-3.25-3.78-0.96-1.03-3.1-1.88-4.75-1.88-1.65 0-4.69-1.1-6.75-2.46-2.06-1.35-4.09-2.25-4.5-2-0.41 0.26-0.75 0.01-0.75-0.54 0-0.55-0.45-0.77-1-0.5-0.55 0.28-2.01-0.58-3.25-1.9-1.24-1.31-3.26-3.56-4.5-5-1.24-1.43-3.04-2.6-4-2.59-0.96 0-2.87-0.77-4.25-1.72-1.37-0.95-4.34-2.64-6.58-3.76-2.25-1.12-5.28-3.49-6.75-5.28-1.47-1.79-3.57-3.25-4.67-3.25-1.1 0-3.24-0.61-4.75-1.36-1.51-0.74-3.09-2.09-3.5-3-0.41-0.9-1.42-1.64-2.25-1.64-0.82 0-2.85-0.79-4.51-1.75-1.66-0.96-3.01-2.2-3-2.75 0-0.55-1.57-2.69-3.49-4.75-2.04-2.19-3.64-3.23-3.83-2.5-0.27 1-0.63 1-1.75 0.01-0.78-0.68-1.83-0.91-2.33-0.5-0.5 0.41-0.61 0.18-0.25-0.51 0.39-0.74-0.36-1.86-1.84-2.75-1.37-0.82-2.95-1.27-3.5-1-0.55 0.28-1.22-0.17-1.5-1-0.27-0.82-1.47-1.5-2.66-1.5-1.2 0-1.87-0.22-1.5-0.5 0.36-0.27 0.1-1.06-0.59-1.75-0.69-0.69-2.6-1.86-4.25-2.62-1.65-0.75-3.79-1.76-4.75-2.25-1.2-0.6-1.76-0.49-1.78 0.37-0.01 0.69-0.46 0.46-1-0.5-0.53-0.96-1.42-1.52-1.97-1.25-0.55 0.28-1-0.17-1-1 0-0.82-2.03-3.64-4.5-6.25-2.48-2.61-4.46-5.11-4.41-5.55 0.06-0.44 1.52 0.31 3.26 1.67zm434.08 23.89c1.14 0.56 2.18 1.18 2.32 1.38 0.14 0.2-1.59 2.05-3.85 4.11-2.26 2.06-7.32 5.48-11.25 7.6-3.93 2.11-9.81 5.94-13.06 8.5-3.25 2.56-6.96 5.66-8.25 6.9-1.98 1.91-2.34 3.24-2.34 8.75 0 3.67-0.43 6.5-1 6.5-0.55 0-1.26 1.01-1.58 2.25-0.33 1.24-0.1 5.4 0.51 9.25 0.6 3.85 1.3 17.13 1.54 29.5 0.25 12.38 0.69 23.29 0.99 24.25 0.3 0.96 1.1 1.73 1.79 1.69 0.69-0.03 2.64-1.04 4.33-2.25 1.69-1.2 6.64-4.59 11-7.53 4.36-2.94 9.8-6.99 12.09-9 2.29-2.01 6.79-5.33 10-7.37 3.21-2.04 6.51-3.72 7.33-3.72 1.34-0.01 1.34 0.09 0 0.85-0.82 0.47-2.85 2.75-4.5 5.07-1.65 2.32-4.46 5.07-6.25 6.11-1.79 1.05-3.25 2.58-3.25 3.4 0 0.83-1.12 1.95-2.5 2.5-1.37 0.55-3.85 1-5.5 1-2.24 0-3.69 0.89-5.75 3.52-1.51 1.93-3.76 3.73-5 4-1.24 0.26-3.49 1.59-5 2.95-1.51 1.35-2.41 2.7-2 3 0.41 0.29-0.49 1.67-2 3.06-1.51 1.4-3.09 2.52-3.5 2.5-0.41-0.01-0.97-0.7-1.25-1.53-0.27-0.82-0.49-2.96-0.47-4.75 0.02-1.79-0.21-3.59-0.5-4-0.29-0.41-1.23-0.07-2.1 0.75-0.89 0.85-3.38 1.49-5.75 1.49-2.3-0.01-4.75-0.35-5.45-0.75-0.99-0.58-1.21-8.23-0.73-70.04l3.46-4.35c1.9-2.39 4.27-4.91 5.25-5.6 1.14-0.8 1.55-1.88 1.13-3-0.37-1-0.27-1.43 0.25-1.01 0.5 0.4 1.51-0.05 2.24-1 0.82-1.09 1.08-1.18 0.67-0.24-0.35 0.83 0.07 0.6 0.95-0.5 0.87-1.1 1.69-2.22 1.82-2.5 0.13-0.27 2.22-1.85 4.65-3.5 2.42-1.65 5.24-2.89 6.25-2.75 1.06 0.15 2.15-0.58 2.58-1.73 0.41-1.1 4.99-4.87 10.18-8.38 7.92-5.38 9.75-6.23 11.5-5.38zm-252.39 13.36c4.57 0.91 7.05 1.99 8.46 3.69 1.1 1.31 2.68 3.41 3.5 4.65 0.83 1.23 2.63 3.5 4 5.03 1.38 1.53 3.4 3.27 4.5 3.87 1.1 0.59 1.44 1.09 0.75 1.11-0.69 0.02-4.74-2.59-9-5.78-4.26-3.2-10.12-7.59-13.01-9.75-2.9-2.17-5.36-3.97-5.46-4.02-0.11-0.04 2.71 0.5 6.26 1.2zm349.98 9.44c0.29-0.03 0.35 0.5 0.13 1.19-0.21 0.69-2.47 3.13-5.02 5.43-2.73 2.47-6.06 4.44-8.13 4.83-3.21 0.59-2.85 0.16 4.5-5.38 4.4-3.3 8.24-6.04 8.52-6.07z"/>
		<path id="Path 5" fill-rule="evenodd" class="s0" d="m569.35 132.65c0.63 0.43 11.5 7.56 24.15 15.87 12.65 8.3 34.15 22.27 47.77 31.04 13.63 8.76 38.6 24.87 55.5 35.79 16.9 10.91 39.95 25.82 51.23 33.12 11.27 7.3 33.55 21.7 49.5 32 15.95 10.3 34.17 22.11 40.5 26.23 6.33 4.13 34.77 22.64 63.21 41.15 28.45 18.51 52.52 34.15 53.5 34.76 1.53 0.94-1.64 3.36-22.21 16.91-13.2 8.69-33 21.72-44 28.96-11 7.24-24.72 16.24-30.5 20.02-5.78 3.77-19.05 12.53-29.5 19.48-10.45 6.94-19.67 12.96-20.5 13.38-0.83 0.42-0.6 0.04 0.5-0.84 1.1-0.88 4.93-3.72 8.51-6.31 3.58-2.59 8.08-5.59 10-6.66 1.92-1.07 5.37-3.32 7.67-5 2.3-1.68 6.35-4.38 9-6 2.65-1.63 14.49-9.31 26.32-17.08 11.83-7.77 27.58-18.09 35-22.93 7.42-4.85 13.61-9.2 13.75-9.68 0.14-0.47 0.81-0.86 1.5-0.87 0.69-0.01 3.79-1.92 6.9-4.25 3.11-2.33 6.56-5.37 7.65-6.74 1.64-2.05 1.93-3.66 1.63-9-0.2-3.57-0.51-7.63-0.68-9-0.17-1.38-0.98-3.19-1.78-4.04-0.81-0.84-3.5-2.91-5.97-4.6-2.47-1.69-7.88-5.03-12-7.43-4.13-2.4-7.72-4.65-8-5-0.28-0.35-4.78-3.44-10-6.88-5.22-3.44-9.61-6.66-9.75-7.15-0.14-0.5-0.92-0.9-1.75-0.9-0.83 0-2.51-0.91-3.75-2.02-1.24-1.11-2.81-2.01-3.5-2-0.69 0.01-1.24-0.32-1.22-0.73 0.01-0.41-1.22-1.41-2.75-2.21-1.53-0.81-5.48-3.28-8.78-5.5-3.3-2.22-6.22-4.31-6.5-4.63-0.28-0.33-6.58-4.55-14-9.38-7.42-4.84-15.08-9.85-17-11.14-1.92-1.3-3.84-2.37-4.25-2.37-0.41-0.01-4.83-2.83-9.83-6.27-4.99-3.44-10.95-7.49-13.25-9-2.29-1.51-4.98-3.31-5.97-4-0.98-0.69-4.81-3.15-8.5-5.47-3.68-2.33-8.5-5.21-10.7-6.4-2.2-1.19-5.35-3.22-7-4.5-1.65-1.28-3.56-2.34-4.25-2.35-0.69-0.02-1.36-0.4-1.5-0.86-0.14-0.46-3.85-3.23-8.25-6.16-4.4-2.92-10.48-6.9-13.5-8.84-3.03-1.94-7.3-4.71-9.5-6.16-2.2-1.46-6.25-3.92-9-5.49-2.75-1.57-5.23-3.16-5.5-3.55-0.28-0.39-2.53-1.72-5-2.97-2.48-1.25-4.73-2.57-5-2.94-0.28-0.37-4.1-3.12-8.5-6.11-4.4-2.98-8.23-5.69-8.5-6.01-0.28-0.32-4.78-3.14-10-6.27-5.23-3.12-10.17-6.14-11-6.7-0.83-0.56-9.15-6.01-18.5-12.12-9.35-6.1-20.75-13.63-25.34-16.72-4.59-3.1-10.77-7.2-13.75-9.13-2.98-1.93-10.13-6.76-15.91-10.75-8.77-6.05-10.62-6.98-11.25-5.62-0.6 1.3-1.36 1.45-3.75 0.74-1.65-0.5-3.67-0.83-4.5-0.75-0.83 0.08-2.51 0.2-3.75 0.26-1.74 0.09-2.35 0.85-2.71 3.37-0.26 1.79-0.7 19-0.99 38.25-0.47 31.41-0.35 35.55 1.21 40.41 1.39 4.31 2.55 5.93 5.73 8 2.19 1.42 4.67 3.13 5.5 3.79 0.83 0.65 2.63 2.16 6.51 5.47l-3-1.89c-1.65-1.04-6.27-4.12-17.55-11.78l0.13-50.31c0.09-37.63 0.41-50.11 1.27-49.54zm-160.1 0.35c0.41 0 0.77 22.39 0.83 99.5l-17.79 11.96c-9.78 6.57-18.44 12.42-19.23 13-1.07 0.77-1.27 0.72-0.75-0.21 0.38-0.69 4.53-3.84 9.22-7 4.69-3.16 9.39-6.2 10.43-6.75 1.05-0.55 2.72-2.24 3.72-3.75 1-1.51 2.27-2.75 2.82-2.76 0.55-0.01 2.8-1.54 9-6.79v-43.13c0-37.26-0.2-43.27-1.5-44.1-0.83-0.53-2.85-0.69-4.5-0.36-1.65 0.34-3.78 1.2-4.74 1.91-0.96 0.72-2.85 1.23-4.2 1.14-1.35-0.09-2.14-0.44-1.76-0.78 0.39-0.34 4.53-3.16 9.2-6.25 4.67-3.1 8.84-5.63 9.25-5.63zm-20.5 13.01c0.14-0.01 0.25 0.21 0.25 0.49 0 0.28-7.09 5.15-15.75 10.83-8.66 5.68-18.45 12.05-21.75 14.15-3.3 2.1-7.58 4.8-9.5 6-1.92 1.2-9.35 6-16.5 10.66-7.15 4.67-15.48 10.07-18.5 12.02-3.03 1.94-10 6.46-15.5 10.04-5.5 3.58-20.8 13.4-34 21.82-13.2 8.42-24.9 16.09-26 17.03-1.1 0.94-3.46 2.44-5.25 3.33-1.79 0.89-3.25 1.4-3.25 1.12 0-0.28 6.86-4.86 15.25-10.19 8.39-5.33 20.87-13.35 27.75-17.83 6.87-4.48 26.67-17.3 44-28.48 17.33-11.19 42.08-27.23 55-35.66 12.92-8.42 23.61-15.32 23.75-15.33zm-167 108.03c0.14-0.02 0.25 0.18 0.25 0.46 0 0.28-4.39 3.35-9.75 6.83-5.36 3.48-12.23 7.91-15.25 9.83-3.03 1.92-6.85 4.33-8.5 5.35-1.65 1.02-2.55 1.36-2 0.76 0.55-0.6 8.65-6.07 18-12.15 9.35-6.07 17.11-11.06 17.25-11.08zm379.5-0.06c0.41 0.01 3.34 1.83 6.5 4.04 3.16 2.22 6.2 4 6.75 3.96 0.55-0.04 1.67 0.67 2.5 1.58 0.83 0.9 6.61 5.09 12.86 9.29 6.24 4.21 11.53 7.99 11.75 8.4 0.21 0.41-8.5-5.16-19.36-12.38-10.86-7.22-20.2-13.53-20.75-14.02-0.55-0.48-0.66-0.88-0.25-0.87zm-245.59 14.02c0.19 0 0.34 0.23 0.34 0.5 0 0.27-7.31 5.3-16.25 11.16-8.94 5.87-16.92 11.13-17.75 11.7-1.33 0.92-1.33 0.85 0-0.59 0.83-0.9 8.66-6.38 17.41-12.2 8.75-5.81 16.06-10.57 16.25-10.57zm-170.91 10.02c0.14-0.01 0.27 0.09 0.29 0.23 0.02 0.14-1.66 1.41-3.75 2.83-2.08 1.42-5.03 3.33-6.54 4.25-1.51 0.92-2.83 1.46-2.92 1.19-0.1-0.26 2.71-2.27 6.25-4.47 3.53-2.21 6.53-4.02 6.67-4.03zm459.25 4.51c0.83 0.45 5.21 3.21 9.75 6.14 4.54 2.93 8.7 5.33 9.25 5.33 0.55 0 1.08 0.39 1.17 0.86 0.09 0.47 5.77 4.64 12.61 9.25 6.85 4.61 12.63 8.73 12.84 9.14 0.21 0.41-9.86-6.06-22.37-14.37-12.51-8.32-23.2-15.59-23.75-16.15q-1.02-1.04 0.5-0.2zm-473.08 4.49c0.23-0.01 0.07 0.32-0.35 0.73-0.42 0.41-11.86 8.05-25.42 16.97-13.56 8.92-25.33 16.69-26.15 17.25-0.83 0.56-6.23 4.01-12 7.66-5.78 3.65-11.63 7.5-13 8.55-1.38 1.05-4.75 3.46-7.5 5.35-2.75 1.9-7.03 4.58-9.5 5.95-2.48 1.38-10.67 6.45-18.21 11.27-7.54 4.81-15.56 10.55-17.82 12.75-2.26 2.2-3.85 4.56-3.54 5.25 0.31 0.69 0.12 1.48-0.43 1.75q-1 0.5 0 2.5 1 2 0 2.5c-0.55 0.27-0.78 0.95-0.5 1.5 0.27 0.55-0.06 0.99-0.75 0.98-0.69-0.01 0.8 1.91 3.31 4.25 2.51 2.35 5.45 4.95 6.55 5.77 1.09 0.82 4.1 2.96 6.68 4.75 2.59 1.79 4.93 3.25 5.21 3.25 0.27 0 1.51 0.97 2.75 2.15 1.24 1.18 1.57 1.77 0.75 1.31-0.83-0.46-10.05-6.42-39.5-25.64l20.24-13.16c11.13-7.24 31.83-20.68 46-29.88 14.17-9.19 38.58-25.05 54.26-35.23 15.67-10.18 28.69-18.52 28.92-18.53zm136.83 12.98c0.14 0 0.25 0.23 0.25 0.5 0 0.27-6.64 4.86-14.75 10.18-8.11 5.32-15.4 10.16-16.19 10.75-0.84 0.62-1.21 0.65-0.89 0.07 0.31-0.55 4.47-3.7 9.26-7 4.78-3.3 10.18-6.9 11.99-8 1.82-1.1 4.82-3.01 6.69-4.25 1.86-1.23 3.5-2.24 3.64-2.25zm393.25 20.53c0.82 0.45 7.97 5.12 15.87 10.39 7.91 5.27 14.55 9.92 14.75 10.33 0.21 0.41-6.48-3.81-14.87-9.38-8.39-5.57-15.7-10.58-16.25-11.14q-1.02-1.04 0.5-0.2zm-426.04 1.54c0.26-0.04-0.19 0.55-1 1.31-0.8 0.76-21.15 14.49-45.21 30.5-24.06 16.02-43.76 29.46-43.77 29.87 0 0.41 5.06 4.15 11.25 8.3 6.2 4.15 40.97 27.36 77.27 51.56 36.3 24.21 81.88 54.56 136.58 90.89l-0.04 52.25c-0.02 28.74-0.27 52.25-0.54 52.25-0.28 0-4.44-2.56-9.25-5.68-4.81-3.13-28.55-18.79-52.75-34.8-24.2-16.01-55.92-36.97-70.48-46.57-14.57-9.6-42.81-28.25-62.75-41.45-19.95-13.2-45.6-30.15-57.02-37.66-11.41-7.51-34.25-22.51-50.75-33.34-16.5-10.83-30.45-20.17-31-20.76-0.55-0.58 0.8-0.02 3 1.26 2.2 1.28 5.46 3.37 7.25 4.66 1.79 1.29 3.47 2.34 3.75 2.34 0.27 0 4.39 2.59 9.15 5.75 4.76 3.16 9.35 6.2 10.2 6.75 0.85 0.55 2.02 1.34 2.6 1.76 0.58 0.42 2.85 1.97 5.05 3.43 2.2 1.47 6.92 4.62 10.5 7.01 3.57 2.39 7.17 4.8 8 5.36 0.82 0.56 11.4 7.56 23.5 15.56 12.1 8 25.15 16.39 29 18.64 3.85 2.24 18.21 11.54 31.91 20.66 13.7 9.12 26.4 17.48 28.22 18.58 1.82 1.1 6.98 4.7 11.48 8 4.49 3.3 9.79 6.92 11.78 8.05 1.98 1.12 7.66 4.68 12.61 7.89 4.95 3.22 9.11 6.24 9.25 6.71 0.14 0.47 0.7 0.85 1.25 0.85 0.55 0 3.14 1.43 5.75 3.18 2.61 1.76 4.97 3.49 5.25 3.85 0.27 0.37 1.05 0.85 1.71 1.07 0.67 0.22 4.27 2.57 8 5.21 3.74 2.65 20.96 14.13 38.29 25.52 17.33 11.38 33.2 21.59 35.29 22.68 2.86 1.5 3.96 1.69 4.5 0.76 0.41-0.71 3.35-1.34 6.99-1.5 4.25-0.18 6.6-0.76 7.26-1.77 0.59-0.92 0.87-17.3 0.46-83.81l-3.02-2.84c-1.65-1.57-6.49-5.21-10.75-8.1-4.25-2.89-7.96-5.25-8.23-5.25-0.28 0-1.06-0.46-1.75-1.01-0.69-0.56-3.28-2.51-5.75-4.32-2.48-1.82-10.03-7.1-16.79-11.74-6.76-4.64-14.04-9.56-16.19-10.93-2.14-1.38-8.65-5.76-14.46-9.75-5.81-3.99-10.79-7.25-11.06-7.25-0.27 0-4.44-2.54-9.25-5.65-4.81-3.11-10.77-6.76-13.25-8.12-2.48-1.36-6.52-3.98-9-5.83-2.48-1.84-4.95-3.74-5.5-4.21-0.55-0.48-3.93-2.66-7.5-4.85-3.58-2.2-9.2-5.86-12.5-8.14-3.3-2.27-6.45-4.13-7-4.12-0.55 0-1.68-0.72-2.5-1.61-0.83-0.89-4.43-3.33-8-5.42-3.58-2.08-8.75-5.72-11.5-8.08-2.75-2.36-9.27-7.07-14.5-10.47-5.23-3.39-10.63-6.78-12-7.52-1.38-0.73-2.95-1.72-3.5-2.18-0.55-0.46-2.88-2.07-5.18-3.57-2.3-1.5-6.47-4.64-9.25-6.98-2.79-2.34-5.07-4.7-5.07-5.25 0-0.55 3.49-3.7 7.75-7 4.26-3.3 8.42-6.01 9.25-6.04 0.82-0.03 2.85-1.18 4.5-2.56 1.65-1.38 7.73-5.63 13.5-9.43 5.77-3.81 14.32-9.63 19-12.93 4.67-3.3 9.85-6.67 11.5-7.49 1.65-0.82 4.12-2.34 5.5-3.38 1.37-1.03 5.1-3.63 8.28-5.77 3.17-2.15 7-4.65 8.5-5.58 1.49-0.92 2.93-1.71 3.18-1.75zm170.04 17.93h88l-0.16 14.75c-0.16 14.71-0.16 14.72-0.96 5.75-0.45-4.95-0.99-10.57-1.22-12.5-0.23-1.93-0.47-3.95-0.54-4.5-0.07-0.64-11.69-1.11-31.87-1.31-17.46-0.18-36.25-0.4-51.75-0.69l-0.25 41.75c-0.16 27.33 0.1 41.75 0.75 41.75 0.55 0 0.77 0.45 0.5 1-0.33 0.66 13.83 1 83.5 1l0.5-2.25c0.27-1.24 0.63-5.85 0.8-10.25 0.26-7.08 0.32-6.77 0.7 13.5h-88zm307 14.53c0.83 0.45 6.67 4.27 13 8.48 6.33 4.21 13.3 8.73 15.5 10.04 2.2 1.31 5.12 3.46 9 7.17l-3-1.83c-1.65-1-9.98-6.52-18.5-12.26-8.52-5.74-15.95-10.89-16.5-11.43q-0.99-0.99 0.5-0.17zm42 29.58c0.27-0.03-1.52 1.73-4 3.91-2.48 2.18-6.75 5.39-9.5 7.13-2.75 1.74-6.8 4.33-9 5.75-2.2 1.43-4.45 2.96-5 3.4-0.55 0.44-5.5 3.75-11 7.35-5.5 3.59-11.35 7.16-13 7.92-1.65 0.76-3.45 1.97-4 2.69-0.55 0.72-2.57 2.42-4.5 3.77-1.92 1.36-5.07 3.31-7 4.34-1.92 1.02-6.41 3.95-9.97 6.5-3.55 2.54-7.93 5.53-9.71 6.63-1.79 1.1-7.88 5.14-13.54 8.98-5.65 3.83-10.51 7.21-10.78 7.5-0.27 0.28-2.08 1.39-4 2.46-1.92 1.07-6.42 4.03-10 6.59-3.58 2.55-8.08 5.46-10 6.46-1.92 1.01-7.33 4.39-12 7.53-4.67 3.13-10.52 6.9-13 8.38-2.48 1.47-3.6 1.97-2.5 1.1 1.1-0.86 38-25.59 82-54.95 44-29.36 80.23-53.41 80.5-53.44zm11.95 97.89c0.25 0 0.02 0.39-0.5 0.88-0.52 0.48-11.08 7.59-23.45 15.81-12.38 8.22-23.06 15.25-23.75 15.62-0.69 0.38-1.19 0.53-1.12 0.34 0.07-0.19 3.91-3 8.54-6.25 4.63-3.24 9.18-6.36 10.12-6.92 0.94-0.56 3.69-2.36 6.12-4 2.43-1.64 6.93-4.57 10-6.52 3.07-1.95 7.39-4.76 9.59-6.26 2.2-1.49 4.2-2.71 4.45-2.7zm-177.2 12.05c0.14-0.03 0.25 0.18 0.25 0.45 0 0.27-11.14 7.85-24.75 16.84-13.61 8.99-25.42 17.01-26.25 17.82-0.83 0.81-2.63 2.19-4 3.07-1.47 0.94-3.04 3.38-3.82 5.94-1.01 3.33-1.24 12.97-1 41.93 0.27 31.7 0.56 37.86 1.82 39.26 1.03 1.14 3.4 1.74 7.49 1.91 5.11 0.2 6.04 0.53 6.35 2.23 0.19 1.1 0.65 2.37 1.01 2.81 0.36 0.45 1.32 0.21 2.15-0.53 0.83-0.74 6.34-4.6 12.25-8.57 5.91-3.96 11.2-7.21 11.75-7.21 0.55 0 1.11-0.37 1.25-0.83 0.14-0.45 3.77-3.26 8.06-6.25 4.3-2.98 9.48-6.33 11.5-7.44 2.03-1.11 5.27-3.23 7.19-4.72 1.92-1.49 3.84-2.72 4.25-2.73 0.41-0.02 7.16-4.24 15-9.38 7.84-5.14 14.92-10.02 15.75-10.84 0.83-0.81 3.08-2.29 5-3.28 1.92-0.98 5.97-3.54 9-5.68 3.02-2.14 9.55-6.57 14.5-9.84 4.95-3.27 12.37-8.22 16.5-11.01 4.12-2.78 7.72-5.06 8-5.05 0.27 0.01 2.3-1.22 4.51-2.72 2.2-1.5 5.58-3.95 7.5-5.45 1.92-1.5 3.83-2.74 4.24-2.75 0.41-0.02 2.66-1.3 5-2.86 2.34-1.56 4.81-3.13 5.5-3.5 0.69-0.37 1.25-0.44 1.25-0.17 0 0.27-4.39 3.35-9.75 6.84-5.36 3.49-25.73 16.91-45.25 29.82-19.52 12.92-43.6 28.82-53.5 35.34-9.9 6.52-26.1 17.25-36 23.83-9.9 6.58-23.74 15.72-43.5 28.67l-0.47-105.77 30.48-20.07c16.77-11.04 30.6-20.09 30.74-20.11z"/>
		<path id="Path 6" fill-rule="evenodd" class="s3" d="m403.5 142.13c0.55-0.05 1.67 0.33 2.5 0.85 1.07 0.69 1.61 3.3 2.31 17.52l-3.41 1.77c-1.87 0.98-4.64 1.76-6.15 1.75-1.59-0.01-3.13-0.76-3.65-1.77-0.49-0.96-1.17-4.79-1.5-8.5-0.33-3.71-0.83-6.75-1.1-6.75-0.27 0-2.19 0.99-4.25 2.21-2.06 1.21-3.98 2.45-4.25 2.75-0.27 0.29-1.85 1.32-3.5 2.26-1.65 0.95-2.89 2.19-2.75 2.75 0.14 0.57-0.31 0.8-1 0.53-0.69-0.28-3.61 1.3-6.5 3.5-2.89 2.2-6.71 4.74-8.5 5.64-1.79 0.9-4.6 2.76-6.25 4.12-1.65 1.37-4.69 3.33-6.75 4.36-2.06 1.04-3.77 2.44-3.8 3.13-0.02 0.69-1.18 2.15-2.57 3.25-1.39 1.1-4.52 3.91-6.95 6.25-4.03 3.87-4.79 4.21-8.43 3.75-3.39-0.42-4.53-0.05-7.5 2.5-1.92 1.65-3.16 3.3-2.75 3.66 0.41 0.36-0.04 0.36-1 0-0.96-0.36-1.73-0.32-1.71 0.09 0.02 0.41-1.44 1.42-3.25 2.24-1.81 0.82-6.44 3.56-10.29 6.1-3.85 2.53-8.8 6.63-11 9.1-2.2 2.47-6.02 5.76-8.5 7.32-2.48 1.56-5.85 2.89-7.5 2.97-1.65 0.07-3.81 0.78-4.8 1.58-0.99 0.79-2.67 2.23-3.75 3.19-1.07 0.96-2.4 1.53-2.95 1.25-0.55-0.28-2.52 0.96-4.37 2.75-1.86 1.79-3.77 3.44-4.25 3.68-0.49 0.24-2.12 0.91-3.64 1.5-1.76 0.68-2.74 1.79-2.72 3.07 0.02 1.1-0.31 1.67-0.74 1.26-0.43-0.41-1.36-0.19-2.07 0.5-0.72 0.68-1.28 1.58-1.25 1.99 0.02 0.41 0.6 0.44 1.29 0.06 1-0.56 1-0.36 0 1-0.69 0.93-1.7 1.47-2.25 1.19-0.55-0.28-2.55 1.19-4.44 3.25-1.9 2.06-4.04 4.55-4.75 5.54-0.72 0.98-4.46 2.95-8.31 4.38-3.85 1.42-8.57 2.71-10.5 2.85-1.93 0.15-3.73 0.29-4 0.33-0.27 0.03 0.01 0.64 0.64 1.36 0.91 1.02 0.56 1.24-1.75 1.04-2.56-0.22-2.82 0.01-2.27 2 0.35 1.25 0.24 1.92-0.25 1.5-0.48-0.42-1.55-0.11-2.37 0.68-0.82 0.78-1.84 1.46-2.25 1.5-0.41 0.04-1.65 0.07-2.75 0.07-1.1 0-1.77 0.45-1.5 1 0.27 0.55 0.05 1.23-0.5 1.5-0.55 0.27-1.01-0.06-1.02-0.75-0.02-0.69-0.69 0.21-1.5 2-0.82 1.79-1.82 3.2-2.23 3.13-0.41-0.06-1.76-0.06-3 0-1.24 0.07-2.25 0.57-2.25 1.12 0 0.55-0.56 1.73-1.25 2.61-0.69 0.89-2.6 3.05-4.25 4.81-1.65 1.75-4.69 3.73-6.75 4.38-2.74 0.88-3.89 1.88-4.25 3.7-0.27 1.38-0.95 2.5-1.5 2.5-0.55 0-2.42 1.01-4.15 2.25-1.74 1.24-4.1 3.19-5.25 4.33-1.16 1.15-4.46 3.29-12.6 7.42l-1-2.5c-0.55-1.37-1.56-2.52-2.25-2.54-0.89-0.04-0.81 0.41 0.25 1.52 0.82 0.86 1.14 1.89 0.7 2.29-0.44 0.4-1.67 0.17-2.75-0.52-1.67-1.07-2.3-0.9-4.45 1.25-1.71 1.71-2.5 3.6-2.5 6 0 3.08-0.64 3.96-5.25 7.28-2.89 2.08-6.49 4.56-8 5.5-1.51 0.95-3.99 1.71-5.5 1.7-1.76-0.01-3.83 1.07-5.75 3.02-1.92 1.95-3.99 3.03-5.75 3.02-1.51-0.01-3.54-0.45-4.5-0.98-1.29-0.72-2.34-0.46-4 1-1.24 1.08-2.7 1.96-3.25 1.96-0.55 0-1.52 1.01-2.15 2.25-0.63 1.24-1.42 2.48-1.75 2.75-0.33 0.27-1.81 2.3-3.29 4.5-1.47 2.2-3.95 4.67-5.49 5.48-1.55 0.82-4.96 3.4-7.57 5.75-2.61 2.35-5.43 4.27-6.25 4.27-0.82 0-1.5 0.45-1.5 1 0 0.55-0.56 0.99-1.25 0.98-0.69-0.01-2.26 0.89-3.5 2-1.81 1.63-2.73 1.83-4.75 1.02-1.37-0.55-2.5-1.45-2.5-2 0-0.55-0.68-1-1.5-1-0.82 0-1.54 0.79-1.58 1.75-0.04 0.96-0.27 1.19-0.5 0.5-0.29-0.88-0.87-0.95-1.92-0.25-1.01 0.67-1.27 1.73-0.79 3.25 0.43 1.37 0.34 1.99-0.25 1.6-0.53-0.36-1.07 0.31-1.2 1.5-0.14 1.18-0.39 5.75-0.56 10.15-0.19 4.9 0.12 8.39 0.78 9 0.6 0.55 2.88 2.1 5.06 3.45 2.18 1.34 4.19 2.79 4.46 3.21 0.27 0.42 2.07 0.73 4 0.69 1.93-0.04 4.74 0.42 6.25 1.04 1.51 0.61 2.75 1.56 2.75 2.11 0 0.55 0.45 1 1 1 0.55 0 4.71 2.53 9.25 5.62 4.54 3.09 8.48 5.91 8.75 6.27 0.27 0.35 1.96 1.87 3.75 3.38 1.79 1.5 2.91 2.72 2.5 2.7-0.41-0.02 0.15 0.89 1.25 2.03 1.1 1.14 3.46 2.28 5.25 2.53 1.79 0.26 3.25 0.92 3.25 1.47 0 0.55 0.79 1.01 1.75 1.03 0.96 0.02 2.46 0.58 3.32 1.25 0.87 0.67 2.08 2.12 2.69 3.22 0.62 1.1 1.94 2.12 2.93 2.27 1 0.14 2.6 0.37 3.56 0.5 0.97 0.12 1.75 0.91 1.75 1.73 0 0.82 1.58 2.74 3.5 4.25 1.93 1.51 4.18 2.75 5 2.75 0.82 0 2.85 0.68 4.5 1.5 1.9 0.95 2.82 2.05 2.5 3q-0.52 1.51 1.75 1.66c1.24 0.09 4.27 0.24 6.75 0.33 2.48 0.09 5.74 0.92 7.25 1.84 1.51 0.92 2.75 2.12 2.75 2.67 0 0.55 0.56 0.99 1.25 0.97 0.69-0.01 3.16 1.34 5.5 3 2.34 1.67 4.59 3.04 5 3.06 0.41 0.01 1.43 0.66 2.25 1.43 0.82 0.78 3.98 2.8 7 4.51 3.02 1.7 6.31 3.42 7.29 3.81 0.99 0.4 2 1.4 2.24 2.22 0.24 0.82 2.47 3.64 4.96 6.25 2.48 2.61 4.51 5.43 4.51 6.25 0 0.82 0.45 1.27 1 1 0.55-0.27 1.44 0.29 1.97 1.25 0.53 0.96 0.98 1.19 1 0.5 0.02-0.86 0.58-0.97 1.78-0.37 0.96 0.49 3.1 1.5 4.75 2.25 1.65 0.75 3.56 1.93 4.25 2.62 0.69 0.69 0.95 1.48 0.58 1.75-0.36 0.28 0.31 0.5 1.5 0.5 1.19 0 2.4 0.68 2.67 1.5 0.27 0.82 0.95 1.27 1.5 1 0.55-0.27 2.13 0.18 3.5 1 1.47 0.88 2.23 2.01 1.84 2.75-0.37 0.69-0.25 0.92 0.25 0.51 0.5-0.41 1.55-0.19 2.32 0.5 1.13 0.99 1.48 0.99 1.75-0.01 0.2-0.73 1.79 0.31 3.84 2.5 1.92 2.06 3.49 4.2 3.48 4.75 0 0.55 1.35 1.79 3.01 2.75 1.65 0.96 3.69 1.75 4.51 1.75 0.82 0 1.84 0.74 2.25 1.64 0.41 0.9 1.99 2.25 3.5 3 1.51 0.75 3.65 1.36 4.75 1.36 1.1 0 3.2 1.46 4.67 3.25 1.46 1.79 4.5 4.16 6.75 5.28 2.24 1.11 5.21 2.81 6.58 3.76 1.38 0.95 3.29 1.72 4.25 1.72 0.96-0.01 2.76 1.16 4 2.59 1.24 1.43 3.26 3.68 4.5 5 1.24 1.32 2.7 2.17 3.25 1.9 0.55-0.27 1-0.05 1 0.5 0 0.55 0.34 0.79 0.75 0.54 0.41-0.25 2.44 0.65 4.5 2 2.06 1.35 5.1 2.46 6.75 2.46 1.65 0 3.79 0.85 4.75 1.88 0.96 1.04 2.42 2.73 3.25 3.78 0.83 1.04 3.65 3 6.28 4.36 2.62 1.37 4.99 3.04 5.25 3.73 0.26 0.69 1.82 1.48 3.47 1.75 2.12 0.35 4.1 1.95 6.75 5.46 2.06 2.72 4.31 4.97 5 5 0.69 0.02 1.25 0.49 1.25 1.04 0 0.55 0.45 0.77 1 0.5 0.55-0.27 1.9-0.05 3 0.5 1.1 0.55 1.98 1.56 1.96 2.25-0.02 0.69 1.22 1.78 2.75 2.43 1.53 0.65 3.8 1.44 5.04 1.75 1.24 0.31 2.25 1.02 2.25 1.57 0 0.55 0.9 1.9 2 3 1.1 1.1 1.66 1.98 1.25 1.96-0.41-0.03-0.19 0.65 0.5 1.5 0.69 0.84 1.7 1.31 2.25 1.04 0.55-0.27 1-0.05 1 0.5 0 0.55 1.01 0.78 2.25 0.52 1.44-0.31 2.88 0.23 4 1.5 0.96 1.09 1.75 2.43 1.75 2.98 0 0.55 1.46 0.99 3.25 0.97 2.37-0.02 4 0.79 6 3 1.51 1.67 2.81 3.37 2.88 3.78 0.08 0.41 0.87 1.25 1.75 1.87 0.89 0.61 2.75 1.45 4.12 1.87 1.38 0.41 4.2 2.61 6.29 4.88 3.11 3.39 3.95 3.86 4.73 2.63 0.52-0.83 0.99-2.62 1.03-4 0.05-1.37 0.4-3.32 0.77-4.32 0.64-1.71 0.86-1.68 6.49 2.82l7.69-4.5-0.02 3.75c0 2.06-0.44 4.42-0.96 5.25-0.65 1.02-2.98 1.59-7.24 1.77-3.64 0.16-6.58 0.79-6.99 1.5-0.54 0.93-1.64 0.74-4.5-0.76-2.09-1.09-17.96-11.3-35.29-22.68-17.33-11.39-34.55-22.87-38.29-25.52-3.73-2.64-7.33-4.99-8-5.21-0.66-0.22-1.44-0.7-1.71-1.07-0.27-0.36-2.64-2.09-5.25-3.85-2.61-1.75-5.2-3.18-5.75-3.18-0.55 0-1.11-0.38-1.25-0.85-0.14-0.47-4.3-3.49-9.25-6.71-4.95-3.21-10.63-6.77-12.61-7.89-1.99-1.13-7.29-4.75-11.78-8.05-4.5-3.3-9.66-6.9-11.48-8-1.82-1.1-14.52-9.46-28.22-18.58-13.7-9.12-28.06-18.42-31.91-20.66-3.85-2.25-16.9-10.64-29-18.64-12.1-8-22.68-15-23.5-15.56-0.82-0.56-4.43-2.97-8-5.36-3.57-2.39-8.3-5.54-10.5-7.01-2.2-1.46-4.47-3.01-5.05-3.43-0.58-0.42-1.75-1.21-2.6-1.76-0.85-0.55-5.44-3.59-10.2-6.75-4.76-3.16-8.88-5.75-9.15-5.75-0.27 0-2.41-1.3-4.75-2.89-2.34-1.58-8.98-5.91-14.75-9.62-5.77-3.71-10.61-7.13-10.75-7.61-0.14-0.49-0.7-0.88-1.25-0.88-0.55 0-3.12-1.46-5.71-3.25-2.58-1.79-5.59-3.93-6.68-4.75-1.1-0.82-4.04-3.42-6.55-5.77-2.51-2.34-4-4.26-3.31-4.25 0.69 0.01 1.03-0.43 0.75-0.98-0.28-0.55-0.05-1.23 0.5-1.5q1-0.5 0-2.5-1-2 0-2.5c0.55-0.27 0.74-1.06 0.43-1.75-0.31-0.69 1.28-3.05 3.54-5.25 2.26-2.2 10.28-7.94 17.82-12.75 7.54-4.82 15.73-9.89 18.21-11.27 2.48-1.37 6.75-4.05 9.5-5.95 2.75-1.89 6.12-4.3 7.5-5.35 1.37-1.05 7.23-4.9 13-8.55 5.77-3.65 11.18-7.09 12-7.65 0.82-0.56 10.05-6.67 20.5-13.57 10.45-6.9 28.9-18.88 41-26.62 12.1-7.74 27.27-17.5 33.72-21.68 6.44-4.19 13.19-8.56 15-9.72 1.8-1.16 13.63-8.78 26.28-16.93 12.65-8.16 28.18-18.18 34.5-22.29 6.33-4.11 13.98-9.06 17-11.01 3.02-1.94 11.35-7.35 18.5-12.02 7.15-4.66 14.58-9.46 16.5-10.66 1.92-1.2 6.2-3.89 9.5-5.99 3.3-2.1 13.65-8.92 23-15.16 12.51-8.35 17.46-11.14 18.75-10.59 1.12 0.49 2.39 0.16 3.5-0.89 0.96-0.9 2.65-1.86 3.75-2.13 1.1-0.27 2.45-0.53 3-0.59zm192.89 10.22c5.84 3.93 13.04 8.72 16.02 10.65 2.98 1.93 9.16 6.03 13.75 9.13 4.59 3.09 15.99 10.62 25.34 16.72 9.35 6.11 17.67 11.56 18.5 12.12 0.83 0.56 5.77 3.58 11 6.7 5.23 3.13 9.73 5.95 10 6.27 0.27 0.32 4.1 3.03 8.5 6.01 4.4 2.99 8.23 5.74 8.5 6.11 0.27 0.37 2.52 1.69 5 2.94 2.48 1.25 4.73 2.58 5 2.97 0.27 0.39 2.75 1.98 5.5 3.55 2.75 1.57 6.8 4.03 9 5.49 2.2 1.45 6.48 4.22 9.5 6.16 3.02 1.94 9.1 5.92 13.5 8.84 4.4 2.93 8.11 5.7 8.25 6.16 0.14 0.46 0.81 0.84 1.5 0.86 0.69 0.01 2.6 1.07 4.25 2.35 1.65 1.28 4.8 3.31 7 4.5 2.2 1.19 7.02 4.07 10.7 6.4 3.69 2.32 7.52 4.78 8.5 5.47 0.99 0.69 3.68 2.49 5.97 4 2.3 1.51 8.26 5.56 13.25 9 5 3.44 9.42 6.26 9.83 6.27 0.41 0 2.33 1.07 4.25 2.37 1.92 1.29 9.58 6.3 17 11.14 7.42 4.83 13.72 9.05 14 9.38 0.28 0.32 3.31 2.5 6.75 4.84 3.44 2.34 6.59 4.24 7 4.23 0.41-0.01 1.65 0.78 2.75 1.75 1.1 0.97 3.25 2.45 4.78 3.27 1.53 0.82 2.76 1.84 2.75 2.25-0.02 0.41 0.87 0.75 1.97 0.75 1.1 0 2.11 0.4 2.25 0.9 0.14 0.49 4.53 3.71 9.75 7.15 5.22 3.44 9.72 6.53 10 6.88 0.28 0.35 3.88 2.6 8 5 4.13 2.4 9.53 5.74 12 7.43 2.47 1.69 5.16 3.76 5.97 4.6 0.8 0.85 1.61 2.67 1.78 4.04 0.17 1.38 0.48 5.43 0.68 9 0.3 5.34 0.01 6.95-1.63 9-1.09 1.38-4.54 4.41-7.65 6.74-3.11 2.33-6.21 4.24-6.9 4.25-0.69 0.01-1.36 0.4-1.5 0.87-0.14 0.48-6.33 4.83-13.75 9.68-7.42 4.84-23.17 15.16-35 22.93-11.83 7.77-23.67 15.45-26.32 17.08-2.65 1.62-6.7 4.32-9 6-2.3 1.68-5.76 3.93-7.68 5-1.92 1.07-5.97 3.78-9 6.01-3.03 2.23-9.96 6.96-15.41 10.5-5.45 3.54-11.36 7.34-13.14 8.44-1.77 1.1-5.18 3.34-7.58 4.98-2.41 1.64-5.11 3.44-6.02 4-0.91 0.56-8.22 5.41-16.25 10.77-8.03 5.36-14.94 9.76-15.35 9.78-0.41 0.01-2.32 1.25-4.24 2.75-1.92 1.5-5.3 3.95-7.5 5.45-2.21 1.5-4.24 2.73-4.51 2.72-0.27-0.01-3.87 2.27-8 5.05-4.12 2.79-11.55 7.74-16.5 11.01-4.95 3.27-11.48 7.7-14.5 9.84-3.02 2.14-7.08 4.7-9 5.68-1.92 0.99-4.17 2.47-5 3.28-0.83 0.82-7.91 5.7-15.75 10.84-7.84 5.14-14.59 9.36-15 9.38-0.41 0.01-2.33 1.24-4.25 2.73-1.92 1.49-5.16 3.61-7.19 4.72-2.02 1.11-7.2 4.46-11.5 7.44-4.29 2.99-7.92 5.8-8.06 6.25-0.14 0.46-0.7 0.83-1.25 0.83-0.55 0-5.84 3.25-11.75 7.21-5.91 3.97-11.42 7.83-12.25 8.57-0.83 0.74-1.79 0.98-2.15 0.53-0.36-0.44-0.82-1.71-1.01-2.81-0.3-1.69-1.28-2.05-6.35-2.32-3.29-0.17-6.57-0.85-7.28-1.5-0.72-0.65-1.28-2.08-1.25-3.18 0.05-1.79 0.61-1.96 5.3-1.62 3.86 0.28 5.7-0.05 6.99-1.25 0.96-0.9 1.99-1.29 2.28-0.88 0.29 0.41 0.51 2.21 0.5 4-0.02 1.79 0.2 3.92 0.47 4.75 0.27 0.83 0.84 1.52 1.25 1.53 0.41 0.02 1.99-1.1 3.5-2.5 1.51-1.39 2.41-2.77 2-3.07-0.41-0.29 0.49-1.64 2-3 1.51-1.35 3.76-2.68 5-2.94 1.24-0.27 3.49-2.07 5-4 2.06-2.63 3.51-3.52 5.75-3.52 1.65 0 4.13-0.45 5.5-1 1.38-0.55 2.5-1.67 2.5-2.5 0-0.83 1.46-2.36 3.25-3.41 1.79-1.06 4.66-3.87 6.38-6.25 2.38-3.3 5.25-5.42 11.95-8.84 4.85-2.48 10.42-5.75 12.37-7.28 1.95-1.54 3.89-2.77 4.3-2.75 0.41 0.01 2.44-1.46 4.5-3.29 2.06-1.82 5.55-4.41 7.74-5.75 2.2-1.34 5.57-4.14 7.5-6.23 1.93-2.08 4.07-3.77 4.76-3.75 0.69 0.03 3.16-1.55 5.5-3.5 2.34-1.95 5.38-3.84 6.75-4.19 1.38-0.35 3.4-1.61 4.5-2.81 1.1-1.19 2.9-2.46 4-2.82 1.1-0.35 3.35-0.89 5-1.19 1.65-0.3 5.02-2.44 7.48-4.75 2.47-2.3 4.68-4.64 4.92-5.19 0.23-0.55 1.82-2.28 3.52-3.84 1.69-1.56 6.68-4.56 11.08-6.67 4.4-2.1 10.48-5.67 13.5-7.92 3.02-2.25 5.95-4.07 6.5-4.05 0.55 0.02 2.13-1.12 3.5-2.52 1.38-1.4 3.06-2.54 3.75-2.53 0.69 0.02 1.25-0.31 1.25-0.72-0.01-0.41 0.83-1.2 1.86-1.75 1.02-0.55 4.51-2.77 7.75-4.92 3.24-2.16 7.47-4.9 9.39-6.09 1.92-1.19 9.35-6.08 16.5-10.85 7.15-4.78 16.38-11.16 20.5-14.18 4.13-3.02 9.97-6.75 13-8.29 3.03-1.53 7.47-4.11 9.88-5.73 2.4-1.62 7.03-4.51 10.27-6.44 3.24-1.93 5.66-3.84 5.37-4.25-0.29-0.41-0.18-0.54 0.23-0.28 0.41 0.26 1.99-0.41 3.5-1.5 1.51-1.08 2.97-1.97 3.25-1.97 0.28 0 2.98-1.69 6.01-3.75 3.04-2.06 5.51-4.09 5.5-4.5 0-0.41 0.55-0.75 1.24-0.75 0.69 0.01 1.81-0.89 2.5-2 0.69-1.1 3.61-3.37 6.5-5.04 2.89-1.68 6.15-3.59 7.25-4.25 1.1-0.67 2.22-1.49 2.5-1.83 0.28-0.33 1.4-0.9 2.5-1.25 1.1-0.36 3.58-2.01 5.5-3.68 1.92-1.66 3.84-3.01 4.25-2.99 0.41 0.02 3.79-2.26 7.5-5.08 3.71-2.82 7.54-5.52 8.5-6 1.23-0.62 1.75-2.07 1.75-4.88 0-2.2-0.45-4.23-1-4.5-0.55-0.27-0.79-1.06-0.53-1.75 0.26-0.69 0.71-2.49 1-4 0.46-2.4-0.21-3.35-5.32-7.5-3.22-2.61-7.16-5.8-8.75-7.09-1.6-1.29-4.02-2.85-5.4-3.48-1.37-0.63-2.72-1.51-3-1.96-0.28-0.45-1.69-0.91-3.15-1.02-1.46-0.11-2.48-0.54-2.25-0.95 0.22-0.41-0.39-0.75-1.35-0.75-0.96 0.01-3.44-1.12-5.5-2.5-2.06-1.37-3.97-2.5-4.25-2.5-0.28 0-2.41-1.51-4.75-3.36-2.34-1.85-5.48-3.99-6.98-4.75-1.5-0.77-4.42-2.62-6.5-4.13-2.07-1.51-5.57-2.98-7.77-3.27-2.2-0.28-5.24-1.41-6.75-2.5-1.51-1.1-2.97-1.99-3.25-1.99-0.28 0-6.54-3.94-13.92-8.75-7.39-4.81-19.42-12.71-26.75-17.55-7.33-4.85-16.7-11.15-20.83-14.02-4.12-2.86-10.42-6.83-14-8.8-3.58-1.98-8.3-4.62-10.5-5.87-2.2-1.24-8.95-5.99-15-10.54-6.05-4.56-15.05-10.73-20-13.73-4.95-3-11.25-6.65-14-8.13-2.75-1.47-7.02-4.53-9.5-6.8-2.48-2.27-5.85-4.69-7.5-5.36-1.65-0.68-5.25-2.93-8-5.01-2.75-2.08-6.2-4.49-7.68-5.36-1.47-0.87-5.97-3.59-10-6.05-4.12-2.52-11.78-8.86-17.53-14.5-5.62-5.52-11.24-10.97-12.5-12.11-1.26-1.15-4.31-3.28-6.79-4.73-3.44-2.02-5.86-2.65-10.25-2.67-4.4-0.01-6.87-0.66-10.5-2.74-2.61-1.49-7.45-4.64-10.75-7.01-3.3-2.36-8.37-6.65-11.26-9.53-4.32-4.31-5.43-4.97-6.24-3.74-0.53 0.82-0.98 3.64-0.98 6.25-0.02 4.53-0.14 4.73-2.52 4.25-1.78-0.36-2.5-0.07-2.5 1 0 0.82 0.62 2.51 1.39 3.75 0.76 1.24 1.63 6.07 2.5 19.25l-3.7-0.75c-3.29-0.67-4.08-0.39-10.77 5.75l0.32-21.5c0.17-11.82 0.53-22.96 0.79-24.75 0.36-2.52 0.98-3.28 2.72-3.37 1.24-0.06 2.92-0.18 3.75-0.26 0.83-0.08 2.85 0.25 4.5 0.75 2.34 0.7 3.14 0.56 3.64-0.64 0.51-1.21 2.83-0.05 11.25 5.62zm-27.12 51.15l0.86 8c0.75 6.86 1.4 8.77 4.62 13.43 2.38 3.45 6.3 7.18 10.75 10.22 3.85 2.64 7.67 4.58 8.5 4.3 0.83-0.27 3.08 0.61 5 1.95 1.92 1.35 5.86 3.61 8.75 5.03 2.89 1.41 7.39 4.51 10 6.88 2.61 2.37 6.77 5.9 9.25 7.83 2.48 1.94 8.55 5.92 13.5 8.85 4.95 2.92 10.13 6.16 11.5 7.2 1.38 1.03 3.29 1.86 4.25 1.84 0.96-0.01 1.86 0.31 2 0.72 0.14 0.41 3.17 2.76 6.75 5.21 3.58 2.46 6.96 4.93 7.53 5.5 0.57 0.57 2.03 2.5 3.25 4.29 1.32 1.93 3.34 3.45 4.97 3.75 1.51 0.27 3.76 1.84 5 3.5 1.77 2.35 2.95 2.96 5.5 2.84 2.3-0.12 5.59 1.24 11.25 4.65 4.4 2.65 9.35 6.02 11 7.49 1.65 1.47 5.25 4.24 8 6.14 2.75 1.9 6.3 4.12 7.89 4.92 1.59 0.8 3.6 3.03 4.47 4.96 0.87 1.93 1.59 3.61 1.61 3.74 0.02 0.12 1.38 0.48 3.03 0.78 1.65 0.3 4.35 0.97 6 1.49 1.65 0.51 4.13 2.08 5.5 3.48 1.38 1.41 2.95 2.55 3.5 2.53 0.55-0.01 2.13 1.35 3.5 3.04 1.38 1.69 4.75 4.72 7.5 6.74 2.75 2.02 5.9 4.47 7 5.45 1.1 0.98 3.8 2.12 6 2.55 2.89 0.55 4.56 1.62 6 3.83 1.1 1.68 4.19 4.59 6.87 6.46 2.68 1.88 5.33 4.31 5.88 5.41 0.55 1.1 0.72 3.57 0.37 5.5-0.35 1.93-1.64 4.52-2.88 5.78-1.23 1.25-3.14 2.27-4.24 2.26-1.1 0-3.42 1.22-5.15 2.73-1.74 1.5-3.58 3.86-4.11 5.23-0.52 1.38-4.5 5.35-8.84 8.82-4.35 3.48-8.69 6.97-9.65 7.75-0.96 0.79-2.2 1.43-2.75 1.43-0.55 0-1.11 0.48-1.25 1.07-0.14 0.6-2.39 1.5-5 2-2.92 0.57-5.42 0.57-6.5 0-1.06-0.57-2.34-0.57-3.25-0.02q-1.48 0.91-0.25 0.93c0.69 0.01 1.02 0.47 0.75 1.02-0.27 0.55-0.95 0.77-1.5 0.5-0.55-0.27-2.24 0.33-3.75 1.34-1.51 1.02-3.71 3.38-4.88 5.25-1.17 1.88-4.1 4.43-6.5 5.68-2.4 1.25-6.39 3.84-8.87 5.76-2.48 1.92-5.62 4.53-7 5.8-1.37 1.28-3.51 2.85-4.75 3.5-1.24 0.64-3.15 0.94-4.25 0.67-1.1-0.27-2.74 0.06-3.65 0.75-0.91 0.69-1.93 1.14-2.25 1-0.33-0.14-0.6 0.2-0.6 0.75 0 0.55-0.3 0.89-0.67 0.75-0.37-0.14-1.72 0.72-3 1.91-1.28 1.18-3.23 3.78-4.33 5.76-1.23 2.21-3.16 3.98-5 4.57-1.65 0.54-4.12 1.17-5.5 1.42-1.37 0.24-2.84 0.47-3.25 0.52-0.41 0.04-0.52 0.52-0.25 1.07 0.27 0.55-0.17 1-1 1-0.83 0-2.89 1.24-4.6 2.75-1.7 1.51-3.84 3.62-4.75 4.67-0.91 1.06-2.66 2.98-3.9 4.25-1.58 1.64-3 2.18-4.75 1.83-1.96-0.39-2.45-0.12-2.25 1.25q0.25 1.75-1.5 1.5c-0.96-0.14-1.75 0.2-1.75 0.75 0 0.55-2.59 2.46-5.75 4.24-3.16 1.78-6.09 3.35-6.5 3.5-0.41 0.14-1.2 0.26-1.75 0.26-0.55 0-3.14 2.04-5.75 4.53-2.61 2.5-5.2 4.52-5.75 4.49-0.55-0.03-1.67-0.45-2.5-0.94-1.09-0.64-4.19 0.95-11.25 5.77-5.36 3.66-9.97 7.44-10.25 8.4-0.28 0.99-1.3 1.64-2.34 1.5-1.01-0.14-3.82 1.1-6.25 2.75-2.42 1.65-4.51 3.23-4.64 3.5-0.13 0.27-0.95 1.4-1.83 2.5-0.87 1.1-1.3 1.33-0.94 0.5 0.41-0.94 0.15-0.85-0.68 0.24-0.72 0.95-1.73 1.4-2.23 1-0.52-0.42-0.63 0.01-0.25 1.01 0.42 1.12 0.01 2.2-1.13 3-0.99 0.69-3.35 3.21-8.71 9.95l-1.09 54.3-0.19-28.5c-0.13-20.32 0.17-29.6 1.05-32.33 0.67-2.1 2.36-4.55 3.73-5.43 1.38-0.88 3.17-2.27 4-3.08 0.83-0.81 16.13-11.13 34-22.94 17.88-11.81 34.98-23.15 38-25.21 3.02-2.06 7.08-4.55 9-5.54 1.92-0.99 6.42-3.89 10-6.44 3.58-2.56 8.08-5.52 10-6.59 1.92-1.07 3.73-2.18 4-2.46 0.27-0.29 5.13-3.67 10.78-7.5 5.66-3.84 11.75-7.88 13.54-8.98 1.78-1.1 6.16-4.09 9.71-6.63 3.56-2.55 8.05-5.48 9.97-6.5 1.93-1.03 5.08-2.98 7-4.34 1.93-1.35 4.17-3.1 5-3.88 0.83-0.78 2.63-1.99 4-2.69 1.38-0.7 7-4.22 12.5-7.81 5.5-3.6 10.45-6.91 11-7.35 0.55-0.44 2.8-1.96 5-3.38 2.2-1.42 6.02-3.86 8.5-5.42 2.48-1.56 6.65-4.67 9.28-6.92 2.63-2.24 4.78-4.53 4.76-5.08-0.01-0.55-1.26-1.75-2.78-2.67-1.52-0.92-3.66-2.51-4.76-3.53-1.1-1.03-3.8-2.95-6-4.27-2.2-1.32-10.08-6.43-17.5-11.35-7.42-4.92-14.4-9.58-15.5-10.35-1.1-0.78-5.6-3.78-10-6.69-4.4-2.9-13.62-9.03-20.5-13.61-6.87-4.59-21.62-14.45-32.77-21.93-11.16-7.48-20.27-13.94-20.25-14.35 0.01-0.41-0.43-0.75-0.98-0.75-0.55 0-5.16-2.68-10.25-5.95-5.09-3.28-14.13-9.24-20.1-13.25-5.97-4.02-12.27-8.52-14-10.01-1.73-1.49-3.6-2.71-4.15-2.72-0.55-0.01-3.59-1.83-6.75-4.05-3.16-2.21-5.98-4.02-6.25-4.02-0.27 0-4.89-3-10.25-6.67-5.36-3.67-9.98-6.93-10.25-7.26-0.27-0.32-2.3-1.75-4.5-3.17-3.2-2.07-4.35-3.67-5.74-7.99-1.22-3.81-1.7-8.38-1.61-15.41zm-161.47 14c0.19 2.75 0.08 6.91-0.23 9.25-0.47 3.48-1.3 4.8-4.57 7.25-2.2 1.65-4.34 3-4.75 3-0.41 0-1.65 1.34-2.75 2.96-1.1 1.63-2.67 3.19-3.5 3.47-0.82 0.29-5.32 3.24-10 6.56-4.67 3.32-13 9.03-18.5 12.68-5.5 3.65-16.75 11.15-25 16.65-8.25 5.51-19.27 12.85-24.5 16.3-5.22 3.45-10.62 7.16-12 8.24-1.37 1.08-3.4 2.31-4.5 2.75-1.1 0.43-5.37 3.16-9.5 6.06-4.12 2.9-9.07 6.42-11 7.82-1.92 1.4-4.51 3.1-5.75 3.78-1.23 0.68-4.83 2.98-8 5.13-3.16 2.14-6.87 4.74-8.25 5.77-1.37 1.04-3.85 2.56-5.5 3.38-1.65 0.82-6.82 4.19-11.5 7.49-4.67 3.3-13.22 9.12-19 12.93-5.77 3.8-11.85 8.05-13.5 9.43-1.65 1.38-3.67 2.53-4.5 2.56-0.82 0.03-4.99 2.74-9.25 6.04-4.26 3.3-7.75 6.45-7.75 7 0 0.55 2.28 2.91 5.07 5.25 2.78 2.34 6.95 5.48 9.25 6.98 2.3 1.5 4.63 3.11 5.18 3.57 0.55 0.46 2.13 1.45 3.5 2.18 1.38 0.74 6.78 4.13 12 7.52 5.23 3.4 11.75 8.11 14.5 10.47 2.75 2.36 7.93 6 11.5 8.08 3.58 2.09 7.18 4.53 8 5.42 0.83 0.89 1.95 1.61 2.5 1.61 0.55-0.01 3.7 1.85 7 4.12 3.3 2.28 8.93 5.94 12.5 8.14 3.58 2.19 6.95 4.37 7.5 4.85 0.55 0.47 3.03 2.37 5.5 4.21 2.48 1.85 6.53 4.47 9 5.83 2.48 1.36 8.44 5.01 13.25 8.12 4.81 3.11 8.98 5.65 9.25 5.65 0.28 0 5.25 3.26 11.06 7.25 5.81 3.99 12.32 8.38 14.46 9.75 2.15 1.38 9.43 6.29 16.19 10.93 6.76 4.64 14.32 9.92 16.79 11.74 2.48 1.81 5.06 3.76 5.75 4.32 0.69 0.55 1.48 1.01 1.75 1.01 0.28 0 3.98 2.36 8.23 5.25 4.26 2.89 9.1 6.53 10.75 8.1 2.86 2.69 3.04 3.32 3.38 12 0.34 8.88 0.3 9.1-1.5 7.43-1.02-0.95-2.42-1.74-3.11-1.75-0.69-0.02-3.04-1.27-5.23-2.78-3.26-2.25-4.08-3.48-4.49-6.75-0.28-2.2-1.3-4.75-2.27-5.66-0.97-0.91-3.33-3.2-5.26-5.09-1.92-1.89-4.17-4.5-5-5.8-0.82-1.31-2.74-3.63-4.25-5.16-1.51-1.53-3.76-2.79-5-2.8-1.24 0-3.82-0.43-5.75-0.96-1.92-0.52-6.42-2.88-10-5.24-3.57-2.36-8.83-5.64-11.68-7.29-2.86-1.65-6.79-4.46-8.75-6.25-1.97-1.79-5.03-4.04-6.82-5.01-1.79-0.97-5.27-3.15-7.75-4.86-2.47-1.71-5.4-3.37-6.5-3.68-1.1-0.32-4.02-2.21-6.5-4.2-2.47-1.99-5.4-3.86-6.5-4.16-1.1-0.29-4.25-1.61-7-2.91-2.75-1.31-10.17-5.98-16.5-10.39-6.32-4.41-15.1-10.44-19.5-13.4-4.4-2.96-9.12-5.73-10.5-6.14-1.37-0.42-3.85-1.69-5.5-2.83-1.65-1.14-7.39-6.25-12.75-11.37-5.36-5.11-10.42-9.3-11.25-9.3-0.82 0-1.49-0.34-1.47-0.75 0.01-0.41-1-1.25-2.25-1.87-1.25-0.61-4.53-3.13-7.28-5.6-2.75-2.46-6.57-5.22-8.5-6.14-2.08-0.99-5.02-3.89-7.25-7.15-2.06-3.02-4.89-6.28-6.28-7.24-1.39-0.96-2.76-2.87-3.05-4.25-0.28-1.37-0.04-3.74 0.53-5.25 0.58-1.51 1.84-3.65 2.8-4.76 0.96-1.1 2.31-2 3-2 0.69 0.01 2.58-0.78 4.21-1.74 1.64-0.96 3.66-2.99 4.5-4.5 0.85-1.51 2.22-2.75 3.04-2.75 0.83 0 4.43-2.93 8-6.5 3.58-3.57 7.4-6.73 8.5-7 1.1-0.27 2.21-1.29 2.46-2.25 0.25-0.96 1.71-2.43 3.23-3.25 1.52-0.82 5.03-3.65 7.79-6.28 2.76-2.63 5.58-4.54 6.27-4.25 0.69 0.29 1.03 0.08 0.75-0.47-0.27-0.55 0.29-1.3 1.25-1.67 0.96-0.36 3.44-2.16 5.5-4 2.06-1.83 4.2-3.33 4.75-3.33 0.55 0 3.36-1.13 6.25-2.52 2.89-1.38 7.5-4.32 10.25-6.52 2.75-2.2 6.13-4.26 7.5-4.58 1.38-0.31 4.53-1.48 7-2.6 2.48-1.11 5.58-2.08 6.89-2.15 1.32-0.07 3.12-1.18 4-2.46 0.89-1.29 3.97-4.77 6.86-7.75 2.89-2.98 6.26-5.81 7.5-6.28 1.24-0.48 7.09-4.53 13-9 5.91-4.48 10.98-8.59 11.25-9.14 0.28-0.55 1.85-1 3.5-1 2.15 0 4.42-1.28 8-4.5 2.75-2.48 7.81-5.91 11.25-7.63 3.44-1.72 6.48-3.44 6.75-3.81 0.28-0.38 2.75-2.19 5.5-4.02 2.75-1.84 6.13-4.33 7.5-5.55 1.38-1.22 3.63-2.47 5-2.78 1.38-0.3 3.4-0.08 4.5 0.49 1.59 0.83 2.46 0.61 4.25-1.08 1.24-1.16 2.25-2.57 2.25-3.12 0-0.55 1.35-2.24 3-3.75 2.81-2.57 3.02-3.28 3.5-18.75l6-0.5c5.43-0.45 6.05-0.74 6.48-3 0.32-1.63 0.6-0.77 0.82 2.5zm117.95 124.66c2.34-0.09 4.25 0.07 4.25 0.34 0 0.27-0.22 1.18-0.5 2-0.29 0.86-1.67 1.48-6 1.43l5-2.77-3.5-0.42c-3.35-0.4-3.31-0.43 0.75-0.58zm4.81 2.87c0.03-0.02 0.11 1.21 0.17 2.72 0.07 1.51-0.07 2.19-0.3 1.5-0.24-0.69-0.77-1.25-1.18-1.25-0.41 0-0.64 2.03-0.5 4.5 0.22 3.92 0 4.47-1.66 4.25-1.05-0.14-1.62-0.7-1.26-1.25 0.35-0.55 0.68-1.45 0.72-2 0.05-0.55-0.28-1.79-0.73-2.75-0.61-1.31-0.12-2.25 1.93-3.72 1.51-1.08 2.78-1.98 2.81-2zm0.61 7.97c0.65 1.56 1.06 15.08 1.09 36 0.03 18.43-0.25 34.51-0.61 35.75-0.6 2.08-1.16 2.23-14.15 1.75l-0.37-3.5c-0.32-3.11-0.15-3.4 1.5-2.65 1.51 0.69 1.72 0.54 1.12-0.75-0.46-0.97-0.26-1.77 0.5-2.02 0.98-0.34 0.97-0.61-0.05-1.25-1.07-0.68-1.07-1.05 0-2.08 0.71-0.69 2.09-1.03 3.05-0.75 0.96 0.27 1.75 0.05 1.75-0.5 0-0.55-0.56-1.19-1.25-1.42-0.69-0.23 0.21-0.46 5.25-0.58l0.33 5.75c0.18 3.16 0.37 0.58 0.42-5.75 0.05-6.32 0.16-22.52 0.24-36 0.1-18.07 0.41-23.84 1.18-22zm38.56 249.5c0.21 2.2 0.21 5.58 0 7.5-0.22 1.92-0.39 0.13-0.39-4 0-4.12 0.17-5.7 0.39-3.5z"/>
		<path id="Path 7" fill-rule="evenodd" class="s4" d="m392.25 154.03c0.41-0.02 0.75 1.32 0.75 2.97 0 2.62-0.34 2.99-2.75 2.92-1.51-0.04-2.98 0.3-3.25 0.75-0.27 0.46-2.08 1.7-4 2.76-1.92 1.06-4.38 2.41-5.46 3-1.08 0.59-2.45 1.52-3.04 2.07-0.59 0.55-2.86 2.11-5.04 3.47-2.18 1.36-6.66 4.63-9.96 7.27-3.3 2.63-6.34 4.78-6.75 4.78-0.41-0.01-4.24 2.11-8.5 4.7-4.26 2.6-13.38 8.52-20.25 13.15-6.87 4.64-13.17 8.67-14 8.96-0.83 0.29-3.3 1.67-5.5 3.06-2.2 1.39-6.14 4.46-8.75 6.82-2.82 2.55-9.32 6.44-16 9.59-6.19 2.92-12.15 6.42-13.25 7.78-1.1 1.36-5.6 4.99-10 8.07-4.4 3.07-9.91 6.55-12.25 7.72-2.34 1.17-7.51 4.75-11.5 7.95-3.99 3.2-9.39 7.25-12 9-2.61 1.75-5.09 3.17-5.5 3.15-0.41-0.01-4.8 2.75-9.75 6.13-4.95 3.38-9.9 6.94-11 7.9-1.1 0.97-3.57 2.24-5.5 2.84-1.93 0.6-6.65 3.8-10.5 7.11-3.85 3.32-10.27 8.62-14.26 11.79-6.67 5.29-7.28 6.09-7.5 9.76-0.23 3.86-0.37 4.01-3.99 4.25-2.42 0.16-3.79-0.19-3.87-1-0.06-0.69-0.06-1.81 0-2.5 0.07-0.69-0.24-1.25-0.68-1.25-0.44 0-1.23 0.38-1.75 0.84-0.52 0.46-2.52 1.45-4.45 2.2-1.93 0.74-5.86 3.74-8.75 6.66-2.89 2.91-6.15 5.3-7.25 5.3-1.1 0-2.17 0.34-2.37 0.75-0.21 0.41-2.57 1.38-5.25 2.16-2.69 0.77-8.79 3.7-13.58 6.5-4.78 2.8-8.5 5.43-8.25 5.84 0.25 0.41 0.09 0.64-0.36 0.5-0.45-0.14-2.53 1.1-4.63 2.75-2.1 1.65-5.45 4.45-7.44 6.23-1.99 1.77-3.96 3.23-4.37 3.25-0.41 0.01-2.21 1.21-4 2.68-1.79 1.46-5.27 3.61-7.75 4.77-2.48 1.17-5.85 2.99-7.5 4.05-1.65 1.05-3.71 2.62-4.58 3.47-0.91 0.89-1.86 4.21-2.25 7.8-0.65 6.05-0.58 6.31 2.08 7.98 1.51 0.95 2.98 2.01 3.25 2.36 0.27 0.35 2.52 1.66 5 2.91 2.48 1.25 7.74 4.35 11.7 6.89 3.96 2.53 10.71 6.83 15 9.55 4.29 2.71 11.85 7.84 16.8 11.39 4.95 3.55 13.05 8.87 18 11.82 4.95 2.96 10.35 5.65 12 5.98 1.65 0.33 3.45 0.97 4 1.43 0.55 0.45 3.02 1.52 5.5 2.38 4.28 1.49 4.6 1.47 6.5-0.41 1.1-1.1 2.79-2 3.75-2.01 0.96-0.01 1.98 0.43 2.25 0.98 0.28 0.56 2.14 0.75 4.25 0.42 3.32-0.52 4.11-0.2 6.9 2.75 1.73 1.83 4.1 5.13 5.25 7.33 1.16 2.2 2.11 4.68 2.12 5.5 0 0.82 0.64 3.3 1.41 5.5 0.76 2.2 2.89 5.24 4.73 6.76 1.84 1.52 3.79 2.78 4.34 2.79 0.55 0.02 1.94 1.02 3.08 2.24 1.14 1.22 2.94 2.9 4 3.74 1.06 0.84 3.94 2.92 6.42 4.62 2.48 1.7 7.99 5.18 12.25 7.72 4.26 2.55 7.98 4.63 8.25 4.63 0.27 0 3.54 1.91 7.25 4.25 3.71 2.34 8.91 5.82 11.56 7.75 2.64 1.92 6.02 4.55 7.5 5.83 1.48 1.28 2.01 1.98 1.19 1.55-0.82-0.43-5.77-3.53-11-6.89-5.23-3.36-12.09-7.54-15.25-9.3-3.16-1.75-9.57-5.89-14.25-9.19-4.68-3.3-8.84-6.01-9.25-6.01-0.41-0.01-3.68-1.77-7.25-3.92-3.57-2.15-7.41-4.73-8.51-5.74-1.11-1-3.81-2.87-6-4.14-2.2-1.27-5.34-2.9-6.99-3.64-1.65-0.73-3.68-2.07-4.5-2.98-0.82-0.91-1.84-1.64-2.25-1.61-0.41 0.02-2.66-1.32-5-2.99-2.34-1.66-4.59-3.01-5-3-0.41 0.02-1.83-0.98-3.15-2.22-1.31-1.24-5.01-3.6-8.21-5.25-3.2-1.65-6.3-3.45-6.9-4-0.59-0.55-4.43-3.23-8.53-5.95-4.1-2.72-7.69-5.23-7.96-5.57-0.27-0.34-2.98-2.45-6-4.68-3.02-2.24-7.3-5.03-9.5-6.2-2.2-1.16-7.15-4.14-11-6.61-3.85-2.47-11.27-7.07-16.5-10.23-5.23-3.15-10.18-6.37-11-7.15-0.82-0.78-3.07-2.59-5-4.01-1.93-1.42-3.73-2.86-4-3.19-0.27-0.34-1.51-1.13-2.75-1.76-2-1.02-2.23-1.85-2.1-7.4 0.09-3.44-0.14-6.81-0.5-7.5-0.36-0.7 0.23-1.8 1.35-2.5 1.1-0.69 1.66-1.6 1.25-2.03-0.41-0.43-0.07-0.82 0.75-0.87 0.82-0.05 1.73-0.05 2 0 0.27 0.05 1.63-1.03 3-2.4 1.38-1.38 3.06-2.49 3.75-2.48 0.69 0.02 1.25-0.31 1.26-0.72 0-0.41 1.01-1.25 2.25-1.86 1.23-0.61 6.51-3.57 11.74-6.57 5.23-3.01 12.47-7.69 16.11-10.4 3.63-2.7 11.42-7.85 17.3-11.42 5.88-3.57 16.52-10.66 23.64-15.75 7.12-5.09 14.64-10.1 16.7-11.13 2.06-1.04 6.34-3.96 9.5-6.5 3.16-2.54 6.09-4.61 6.5-4.59 0.41 0.02 1.49-0.77 2.39-1.75 0.9-0.98 4.81-3.35 8.69-5.28 3.88-1.93 6.78-3.95 6.45-4.5-0.33-0.55-0.19-0.67 0.31-0.26 0.5 0.4 2.93-0.75 5.41-2.57 2.48-1.81 7.88-5.26 12-7.65 4.13-2.4 8.85-5.39 10.5-6.66 1.65-1.27 3.45-2.3 4-2.29 0.55 0.01 1.68-0.71 2.5-1.6 0.82-0.89 3.52-2.57 6-3.73 2.48-1.17 9.17-5.3 14.88-9.18 5.71-3.88 11.68-8.3 13.25-9.81 1.58-1.51 3.32-2.75 3.87-2.75 0.55 0 3.38-1.69 6.29-3.75 2.9-2.06 6.16-4.31 7.25-4.99 1.08-0.67 3.31-1.86 4.96-2.62 1.65-0.76 4.35-2.58 6-4.03 1.65-1.45 7.05-5.19 12-8.3 4.95-3.11 14.4-9.17 21-13.47 6.6-4.29 13.8-9.04 16-10.55 2.2-1.51 7.15-4.72 11-7.14 3.85-2.41 8.8-5.18 11-6.13 2.2-0.96 6.02-3.43 8.5-5.5 2.48-2.06 8.1-6.13 12.5-9.04 4.4-2.9 8.9-6.14 10-7.19 1.1-1.05 2.9-2.43 4-3.07 1.1-0.64 2.34-1.17 2.75-1.19zm194.58 1.96c0.37 0 2.92 2.24 5.67 4.99 2.75 2.75 7.7 6.93 11 9.28 3.3 2.36 9.26 6.19 13.25 8.51 3.99 2.33 7.48 4.68 7.75 5.23 0.28 0.57-1.34 0.41-3.75-0.35-2.34-0.75-5.15-1.25-6.25-1.11-1.1 0.14-4.48 0.75-7.5 1.37-3.02 0.61-6.06 1.11-6.75 1.1-0.69-0.01-2.15-0.91-3.25-2.01-1.39-1.39-2.36-1.7-3.2-1-0.66 0.55-1.45 1.02-1.75 1.04-0.3 0.02-1.08-1.22-1.73-2.75-0.65-1.53-1.43-4.93-1.75-7.54-0.4-3.3-1.03-4.75-2.07-4.75-1.11 0-1.5-1.17-1.5-4.5 0-2.47 0.26-5.18 0.58-6 0.33-0.82 0.89-1.5 1.25-1.51zm-187.08 8.15c1.39-0.09 2.25 0.43 2.25 1.36 0 0.96-0.63 1.31-1.75 0.99-0.96-0.29-2.76 0.16-4 1-1.24 0.83-2.49 1.17-2.78 0.76-0.29-0.41-0.51-1.31-0.5-2 0.02-0.69 1.04-1.41 2.28-1.61 1.24-0.2 3.26-0.43 4.5-0.5zm181.91 3.25c0.74 0.34 1.79 0.61 2.34 0.61 0.62 0 0.95 4.67 0.88 12.25-0.07 7.81-0.39 11.16-0.88 9.25-0.42-1.65-0.81-5.7-0.86-9-0.07-3.6-0.7-6.8-1.59-8-0.82-1.1-1.43-2.84-1.36-3.86 0.08-1.16 0.62-1.63 1.47-1.25zm58.02 26.61c0.45 0 3.52 1.79 6.82 3.98 3.3 2.18 7.8 5.22 10 6.75 2.2 1.52 5.57 3.61 7.5 4.65 1.92 1.03 5.08 3.05 7 4.5 1.92 1.44 5.3 3.5 7.5 4.58 2.2 1.08 7.06 4.23 10.79 7 3.73 2.77 6.77 5.15 6.75 5.29-0.02 0.14-1.73-0.59-3.79-1.61-2.06-1.02-7.12-3.5-11.25-5.51-4.12-2.01-8.93-4.88-10.68-6.39-1.74-1.51-5.57-4.44-8.5-6.53-2.92-2.08-7.8-5.41-10.82-7.4-3.02-1.99-6.99-4.9-8.82-6.47-1.83-1.56-2.95-2.84-2.5-2.84zm-247 34.42c0.18 0.32-0.07 1.37-0.54 2.33-0.48 0.96-2.39 2.75-4.25 3.97-1.87 1.22-4.51 2.99-5.89 3.93-1.37 0.94-4.75 3.82-7.5 6.39-2.75 2.57-7.25 6.18-10 8-2.75 1.83-5.23 3.67-5.5 4.08-0.27 0.42-5.23 2.98-11 5.7-5.77 2.72-12.52 6.58-15 8.56-2.48 1.99-9 7.12-14.5 11.41-5.5 4.28-12.7 9.08-16 10.65-3.3 1.58-7.12 3.36-8.5 3.96-1.37 0.6-4.75 2.64-7.5 4.52-2.75 1.88-6.57 4.86-8.5 6.62-1.93 1.75-6.31 5.05-9.75 7.32-3.44 2.28-6.48 4.59-6.75 5.14-0.27 0.55-2.64 1.96-5.25 3.13-2.61 1.17-6.55 2.97-8.75 4-2.2 1.03-8.05 5.03-13 8.9-4.95 3.86-9.23 7-9.5 6.97-0.27-0.02-3.2 2.03-6.5 4.56-3.3 2.54-6.11 5.02-6.25 5.53-0.14 0.5-0.81 0.9-1.5 0.9-0.69-0.01-3.39 1.34-6 3-2.61 1.65-4.98 3.01-5.25 3.01-0.27 0 1.86-2.76 4.75-6.13 2.89-3.37 7.05-7.03 9.25-8.13 2.2-1.11 5.57-3.25 7.5-4.77 1.93-1.52 7.32-5.33 12-8.47 4.68-3.15 9.85-6.96 11.5-8.47 1.65-1.52 5.7-4.55 9-6.75 3.3-2.2 7.13-4.34 8.5-4.75 1.38-0.41 4.52-2.04 7-3.61 2.48-1.58 4.95-2.9 5.5-2.93 0.55-0.03 3.7-1.72 7-3.75 3.3-2.03 7.11-4.6 8.48-5.71 1.36-1.12 4.18-3.83 6.26-6.03 3.18-3.36 3.7-4.48 3.19-7-0.35-1.76-0.15-3.21 0.49-3.5 0.78-0.36 0.77-1.49-0.03-4-0.83-2.58-0.83-4.09-0.01-5.75 0.62-1.24 1.79-2.25 2.62-2.25 0.83 0 1.73 0.45 2 1 0.31 0.62 3.24 0.75 7.75 0.33 5.29-0.48 8.14-0.28 10.53 0.75 2.62 1.14 3.52 1.17 4.45 0.17 0.64-0.69 2.09-1.25 3.22-1.25 1.13 0 3.4-1.17 5.05-2.6 1.65-1.42 4.58-3.4 6.5-4.38 1.92-0.98 5.32-3.75 7.54-6.15 2.35-2.55 7.29-6.03 11.85-8.37 4.3-2.2 8.67-4.79 9.71-5.75 1.05-0.96 2.01-1.68 2.15-1.6 0.14 0.08 2.27-0.88 4.75-2.14 2.48-1.25 6.3-3.67 8.5-5.37 2.2-1.7 4.42-3.69 4.93-4.44 0.51-0.74 1.08-1.09 1.25-0.78zm191.87 0.08l4.97 4.04c3.59 2.91 6.38 4.27 9.98 4.86 2.75 0.44 6.94 1.78 9.31 2.95 2.37 1.18 4.48 2.83 4.7 3.65 0.21 0.82 2.32 2.85 4.69 4.5 2.36 1.65 5.42 4.01 6.8 5.25 1.37 1.24 2.84 2.26 3.25 2.25 0.41 0 0.77 0.56 0.79 1.25 0.02 0.69 2.15 2.58 4.75 4.2 2.59 1.62 7.97 5.33 11.96 8.25 3.99 2.91 8.04 5.41 9.02 5.55 0.97 0.14 2.88 1.3 4.25 2.57 1.36 1.28 8.1 6.17 14.98 10.85 6.87 4.69 13.85 9.5 15.5 10.69 1.65 1.19 5.48 2.93 8.5 3.86 3.02 0.93 7.3 1.98 9.5 2.33 2.2 0.36 5.35 0.85 7 1.09 1.85 0.28 4.25 1.87 6.25 4.15 1.79 2.04 3.59 5.01 4 6.6 0.41 1.58 2.25 4.06 4.09 5.5 1.84 1.43 4.54 3.89 6 5.45 1.46 1.56 6.26 5 10.66 7.64 4.4 2.64 8.67 5.55 9.5 6.46 0.83 0.91 1.95 1.63 2.5 1.61 0.55-0.03 2.58 1.33 4.5 3.01 1.92 1.68 5.98 4.66 9 6.63 3.02 1.96 9.1 5.95 13.5 8.86 4.4 2.91 10.14 7.35 12.75 9.87 4.71 4.54 4.75 4.64 4.75 11.08 0 5.84-0.29 6.78-2.85 9.25-1.57 1.51-4.72 4.21-7 6-2.28 1.79-4.34 3.14-4.56 3-0.23-0.14 0.33-1.16 1.25-2.28 0.91-1.11 3.42-3.14 5.57-4.5 2.15-1.36 4.18-3.22 4.5-4.15 0.32-0.92 0.48-4.41 0.09-13.82l-4.75-2.95c-2.61-1.62-6.33-4.61-8.25-6.65-1.92-2.04-4.63-4.41-6-5.27-1.38-0.85-6.66-4.61-11.75-8.34-5.09-3.73-9.48-6.79-9.75-6.79-0.27 0-1.06-0.46-1.75-1.01-0.69-0.56-2.94-2.14-5-3.5-2.06-1.37-4.2-2.49-4.75-2.49-0.55 0-1-0.45-1-1 0-0.55-0.45-0.77-1-0.5-0.55 0.27-1.11 0.16-1.25-0.26-0.14-0.41-3.74-3.11-8-6-4.26-2.88-8.09-5.25-8.5-5.26-0.41-0.01-3.9-2.48-7.75-5.49-3.85-3-8.99-6.71-11.41-8.23-2.43-1.52-14.58-9.47-27-17.67-12.43-8.2-22.7-15.28-22.84-15.75-0.14-0.46-1.04-0.82-2-0.81-0.96 0.02-2.88-0.81-4.25-1.84-1.38-1.04-6.55-4.28-11.5-7.2-4.95-2.93-11.02-6.91-13.5-8.85-2.48-1.93-6.64-5.46-9.25-7.83-2.61-2.37-6.94-5.32-9.61-6.56-2.67-1.24-5.7-2.98-6.75-3.87-1.04-0.89-4.37-2.98-7.39-4.63-3.28-1.8-6.3-4.38-7.48-6.39zm121.94 9.29c0.56 0.56 3.72 2.49 7.02 4.28 3.3 1.79 10.05 5.7 15 8.69 4.95 2.99 13.95 9.16 20 13.71 6.05 4.56 12.8 9.3 15 10.55 2.2 1.24 6.92 3.88 10.5 5.86 3.57 1.98 9.87 5.94 14 8.81 4.12 2.86 13.49 9.17 20.82 14.01 7.33 4.84 19.37 12.74 26.75 17.55 7.39 4.82 13.76 8.77 14.18 8.79 0.41 0.02 2.55 1.65 8.75 7.18l-8-4.21c-4.4-2.31-10.7-5.06-14-6.1-3.3-1.03-8.93-3.44-12.5-5.35-3.58-1.9-10.1-5.21-14.5-7.35-4.4-2.13-10.44-4.97-13.43-6.29-5.04-2.24-6.46-2.4-20-2.16-13.25 0.24-14.82 0.08-17.32-1.75-1.52-1.1-3.48-3.47-4.37-5.26-1.26-2.52-1.49-4.86-0.38-17.75l-4.25-4.94c-3.13-3.64-6.77-6.23-13.75-9.81-8.71-4.47-9.88-5.42-14-11.47-2.48-3.63-7.32-8.89-10.75-11.69-3.44-2.8-6.15-5.37-6.02-5.71 0.13-0.34 0.69-0.16 1.25 0.41zm-225.05 104.85c17.64 0.08 35.44 0.21 39.57 0.29 7.03 0.14 7.34 0.23 2.5 3l2.75 0.04c1.51 0.02 2.94-0.53 3.17-1.22 0.34-1 0.44-1 0.5 0 0.04 0.69-1.05 1.93-2.42 2.75-1.87 1.12-2.3 1.95-1.69 3.25 0.45 0.97 0.78 2.2 0.74 2.75-0.05 0.55-0.37 1.45-0.73 2-0.35 0.55 0.22 1.12 1.27 1.25 1.66 0.22 1.88-0.32 1.66-4.24-0.14-2.48 0.08-4.5 0.5-4.5 0.41 0 0.65 16.76 0.53 37.24-0.12 20.49-0.35 34.67-0.78 25.75l-3.25 0.08c-1.79 0.05-2.69 0.27-2 0.5 0.68 0.24 1.25 0.87 1.25 1.42 0 0.55-0.79 0.78-1.75 0.5-0.97-0.28-2.34 0.06-3.06 0.75-1.07 1.03-1.07 1.4 0 2.08 1.03 0.65 1.04 0.92 0.06 1.25-0.76 0.26-0.96 1.05-0.5 2.03 0.57 1.23 0.34 1.46-1 1-1.45-0.5-1.75 0-1.75 6.39h-34.5c-22.67 0-34.33-0.34-34-1 0.27-0.55-0.18-1-1-1-1.31 0-1.53-5.3-1.7-40.93-0.2-39.36-0.13-40.95 1.68-41.25 1.03-0.17 16.31-0.25 33.95-0.18zm-303.27 32.36c0.46 0 0.84 0.45 0.84 1 0 0.55-0.34 1-0.75 1.01-0.42 0-0.7 2.13-0.64 4.75 0.06 2.61 0.17 5.76 0.25 6.99 0.07 1.24 1.82 4.12 3.89 6.39 2.06 2.28 4.87 5.31 6.25 6.75 1.37 1.44 3.62 3.33 5 4.2 1.37 0.88 4.75 2.35 7.5 3.27 2.75 0.92 7.47 3.36 10.5 5.41 3.02 2.05 5.61 4.07 5.75 4.48 0.13 0.42 0.92 0.75 1.75 0.75 0.82 0 5.47 3.94 10.33 8.75 4.86 4.82 7.67 7.81 6.25 6.66-1.42-1.15-4.16-3.02-6.08-4.17-1.93-1.15-4.63-3.28-6-4.73-1.38-1.46-4.98-4.04-8-5.73-3.03-1.7-6.18-3.67-7-4.39-0.83-0.72-5.1-3.36-9.5-5.87-4.4-2.5-8.23-4.54-8.5-4.52-0.28 0.01-2.75-2.27-5.5-5.07-2.75-2.81-5.79-5.85-6.76-6.76-1.37-1.29-1.8-3.47-1.92-9.75-0.09-4.44 0.22-8.38 0.68-8.75 0.46-0.37 1.21-0.67 1.66-0.67zm746 8.51c0.57 0.34 1 2.39 0.94 4.55-0.07 2.68-0.66 4.23-1.85 4.83-0.97 0.48-4.79 3.18-8.5 6-3.72 2.81-7.09 5.1-7.5 5.08-0.42-0.02-2.33 1.32-4.25 2.99-1.93 1.66-4.4 3.32-5.5 3.67-1.1 0.35-2.23 0.92-2.5 1.26-0.28 0.34-1.4 1.18-2.5 1.87-1.1 0.69-3.58 2.04-5.5 3-1.93 0.96-3.73 1.97-4 2.25-0.28 0.28-3.43 2.27-7 4.41-3.58 2.14-6.84 4.05-7.25 4.24-0.42 0.19-0.77 0.23-0.79 0.09-0.03-0.13 1.89-1.53 4.25-3.1 2.36-1.57 7.33-6.07 11.05-10 3.72-3.93 6.77-8.05 6.78-9.15 0.01-1.1 1.7-3.69 3.74-5.77 2.04-2.07 4.39-3.92 5.22-4.1 0.82-0.18 2.17-0.58 3-0.9 0.82-0.31 3.97-1.13 7-1.81 4.32-0.97 6.42-2.18 9.81-5.63 2.37-2.41 4.78-4.11 5.35-3.78zm-152.91 28.59c0.41-0.05 0.75 0.35 0.75 0.9 0 0.55-0.42 1-0.94 1-0.51 0-1.65 0.57-2.53 1.25-0.88 0.69-2.15 1.75-2.82 2.35-0.67 0.59-3.01 2.06-5.21 3.25-2.2 1.19-7.15 4.41-11 7.15-3.85 2.74-9.03 5.99-11.5 7.23-2.48 1.24-5.63 3.19-7 4.34-1.38 1.16-5.2 3.91-8.5 6.12-3.3 2.2-7.13 4.57-8.5 5.26-1.94 0.96-1.69 0.49 1.12-2.1 1.99-1.84 4.58-4.13 5.75-5.1 1.17-0.96 3.59-2.49 5.38-3.41 1.78-0.91 8.42-5.12 14.75-9.35 6.32-4.24 13.07-8.5 15-9.46 1.92-0.97 5.07-2.95 6.98-4.39 1.92-1.45 4.39-3.15 5.5-3.79 1.11-0.63 2.35-1.19 2.77-1.25zm85.36 23.9c1.31 0 1.29 0.26-0.17 1.75-0.93 0.97-3.82 3.1-6.43 4.75-2.61 1.65-6.71 4.33-9.13 5.94-2.41 1.62-6.86 4.2-9.88 5.74-3.03 1.53-8.88 5.26-13 8.28-4.13 3.02-13.35 9.4-20.5 14.18-7.15 4.78-14.58 9.66-16.5 10.85-1.93 1.19-6.15 3.93-9.39 6.09-3.24 2.16-6.73 4.37-7.76 4.92-1.02 0.55-1.86 1.34-1.86 1.75 0.01 0.42-0.56 0.74-1.24 0.73-0.69-0.02-2.38 1.12-3.75 2.52-1.38 1.41-2.95 2.54-3.5 2.52-0.55-0.02-3.48 1.81-6.5 4.06-3.03 2.25-9.1 5.85-13.5 8.01-4.4 2.16-13.04 7.64-19.2 12.17-6.16 4.54-14.04 10.02-17.5 12.19-3.47 2.17-9.12 5.66-12.55 7.75-3.44 2.09-8.62 6.07-11.5 8.83-2.89 2.77-5.59 5.02-6 5-0.42-0.01-2.78 1.77-5.25 3.97-2.48 2.2-4.95 4-5.5 4-0.55 0-2.24 1.09-3.75 2.42-1.52 1.33-5.9 4.07-9.75 6.1-3.85 2.02-8.58 4.05-10.5 4.51-3.47 0.82-3.48 0.81-1.18-0.85 1.28-0.92 4.43-3.5 7-5.74 2.57-2.23 5.8-4.43 7.18-4.89 1.37-0.45 4.76-2.22 7.52-3.93 2.76-1.72 6.59-3.91 8.5-4.87 1.91-0.97 4.71-2.89 6.23-4.25 1.51-1.37 3.08-2.51 3.5-2.53 0.41-0.03 2.36-1.49 4.34-3.25 1.97-1.77 6.86-5.69 10.86-8.72 4-3.02 7.79-5.99 8.41-6.59 0.63-0.6 2.04-1.37 3.14-1.7 1.1-0.34 3.23-1.76 4.75-3.16 1.51-1.4 4.21-3.29 6-4.19 1.78-0.91 3.92-2.41 4.75-3.35 0.82-0.93 4.2-3.2 7.5-5.03 3.3-1.84 7.35-4.02 9-4.83 1.65-0.82 4.65-2.87 6.68-4.57 2.02-1.69 8.5-5.55 14.4-8.58 8.25-4.23 11.7-6.64 14.98-10.5 3.92-4.6 4.24-5.39 3.99-10-0.15-2.75-1.29-7.25-2.54-10-1.26-2.79-2.27-6.98-2.28-9.5-0.01-2.47 0.55-5.62 1.25-7 0.69-1.37 2.44-3.77 3.89-5.33 1.44-1.57 3.92-3.52 5.5-4.34 1.82-0.95 4.03-1.27 6-0.86 1.72 0.35 5.21 2.08 7.75 3.84 2.54 1.76 7.49 5.36 11 8.01 5.06 3.83 6.89 4.69 8.88 4.18 1.37-0.35 5.2-1.81 8.5-3.24 3.3-1.44 6.67-3.2 7.5-3.91 0.82-0.71 2.06-1.31 2.75-1.32 0.68-0.01 1.25-0.48 1.25-1.03 0-0.55 0.33-0.89 0.75-0.76 0.41 0.13 2.77-1.16 5.25-2.88 2.47-1.71 7.51-4.83 11.2-6.93 3.68-2.1 7.18-4.4 7.79-5.12 0.6-0.72 1.78-1.31 2.62-1.31zm-612.11 5.78c1.1 0.61 4.02 2.06 6.5 3.23 2.47 1.17 7.2 4.1 10.5 6.5 3.3 2.4 11.17 7.91 17.5 12.23 6.32 4.32 13.52 8.8 16 9.97 2.47 1.16 5.4 2.35 6.5 2.64 1.1 0.3 4.02 2.17 6.5 4.15 2.47 1.99 5.4 3.88 6.5 4.2 1.1 0.32 4.02 1.98 6.5 3.68 2.47 1.71 5.96 3.9 7.75 4.87 1.78 0.96 4.85 3.22 6.81 5 1.96 1.79 5.92 4.6 8.78 6.25 2.87 1.65 8.81 5.45 13.19 8.43 4.38 2.99 9.54 6.62 11.47 8.07 1.92 1.46 7.1 5.32 11.51 8.58 4.41 3.26 8.91 6.42 10 7.03 1.09 0.61 2.14 1.96 2.34 3 0.27 1.51-0.34 1.25-3-1.23-1.85-1.72-6.5-4.88-10.35-7.01-3.85-2.13-10.53-6.34-14.85-9.37-4.31-3.02-10.83-6.76-14.5-8.3-3.66-1.55-7.78-4.05-9.15-5.55-1.38-1.51-5.32-4.41-8.75-6.44-5.55-3.29-6.95-3.69-12.5-3.56-5.3 0.12-7.32 0.75-13.25 4.13-6.41 3.65-7.43 3.93-12 3.34-2.75-0.35-6.92-1.76-9.25-3.13-2.34-1.37-5.68-4.62-7.42-7.24-3.12-4.69-3.15-4.86-1.83-22.25l-4.88-7.25c-4.2-6.24-6.18-8.07-14.25-13.22-5.16-3.28-9.82-6.43-10.37-7-0.55-0.57-1.68-1.89-2.5-2.94-1.4-1.77-1.36-1.83 0.5-0.81zm466.21 10.22c0.12 0 0.01 0.45-0.25 1-0.25 0.55-1.03 1.01-1.71 1.01-0.69 0-2.6 1.13-4.25 2.53-1.65 1.39-2.67 2.51-2.25 2.49 0.41-0.01-1.39 1.89-4 4.22-2.62 2.34-5.08 4.7-5.49 5.25-0.4 0.55-0.74 0.67-0.75 0.25-0.01-0.41-1.93-0.15-4.26 0.58-2.34 0.73-6.5 2.96-9.25 4.97-2.75 2-5.45 3.63-6 3.63-0.55-0.01-1.68 0.73-2.5 1.65-0.83 0.91-2.4 2.1-3.5 2.64-1.17 0.57-0.75-0.13 1-1.68 1.65-1.46 3.9-3.42 5-4.36 1.1-0.94 4.15-3.05 6.78-4.69 2.64-1.64 6.24-3.99 8-5.22 1.77-1.23 5.47-3.75 8.22-5.61 2.75-1.85 7.25-4.56 10-6.01 2.75-1.46 5.09-2.65 5.21-2.65zm-48 32.08c0.12-0.04 0.01 0.37-0.25 0.92-0.25 0.55-1.09 1-1.87 1-0.77 0-4.1 2.7-7.4 6-3.3 3.3-6.38 6-6.85 5.98-0.46-0.01-2.98 1.34-5.59 3-2.62 1.67-4.75 3.7-4.75 4.52 0 0.83-0.57 1.56-1.25 1.62-0.69 0.06-2.04 0.06-3 0-0.97-0.06-3.22 1.04-5 2.44-1.79 1.41-6.11 4.45-9.6 6.75-3.48 2.31-7.08 4.63-8 5.16-0.91 0.53-3.68 2.31-6.15 3.95-2.48 1.64-4.83 3.45-5.24 4.03-0.4 0.58-0.74 0.72-0.75 0.3-0.01-0.41-2.09 0.72-4.63 2.5-2.54 1.79-5.24 4.15-6.01 5.25-1.37 1.97-1.39 1.97-1.38-0.25 0-1.23 1.05-3.26 2.33-4.5 1.27-1.23 5.21-4.5 8.75-7.25 3.53-2.76 9.35-6.48 12.93-8.27 4.31-2.17 9.64-6.29 15.82-12.25 5.13-4.94 9.74-8.98 10.25-8.98 0.51 0 1.04 0.08 1.18 0.18 0.13 0.09 2.05-0.97 4.25-2.35 2.2-1.38 6.7-3.67 10-5.09 3.3-1.42 7.35-3.03 9-3.58 1.65-0.55 3.09-1.03 3.21-1.08zm-386.96 51.96c0.68-0.02 1.23 0.3 1.21 0.71-0.02 0.42 2.45 2.44 5.5 4.5 3.05 2.07 5.76 3.75 6.04 3.75 0.27 0 1.96 1.44 7 6.38l-5.38-2.94c-2.96-1.61-7.69-5.06-10.5-7.65-2.82-2.59-4.56-4.73-3.87-4.75zm118 11c0.41 0.01 2.21 0.91 4 2 1.78 1.08 3.13 2.2 3 2.5-0.14 0.29-1.94 0.29-4 0-2.91-0.42-3.75-0.99-3.75-2.54 0-1.1 0.33-1.98 0.75-1.96zm190.3 0.96c0.57 0 0.88 7.15 0.63 35.5l-0.7-12c-0.39-6.6-1.04-13.57-1.45-15.5-0.41-1.92-0.44-4.51-0.08-5.75 0.36-1.23 1.08-2.25 1.6-2.25zm-274.55 11.61l2.5 1.55c1.37 0.86 9.25 5.82 17.5 11.03 8.25 5.22 19.05 11.89 24 14.84 4.95 2.95 9.22 5.63 9.5 5.97 0.27 0.33 2.07 1.69 4 3.02 1.92 1.34 4.62 3.5 6 4.82 2.35 2.25 2.21 2.23-2.5-0.41-2.75-1.54-8.83-5.48-13.5-8.76-4.68-3.28-8.73-6.28-9-6.67-0.28-0.39-4.1-2.65-8.5-5.03-4.4-2.37-9.8-5.53-12-7.01-2.2-1.48-6.03-3.83-8.5-5.23-2.48-1.39-5.63-3.79-7-5.33zm305.37 35.41c0.21-0.01-0.47 0.94-1.5 2.1-1.03 1.16-5.02 4.13-8.87 6.61-3.85 2.47-7.9 5.28-9 6.24-1.1 0.96-3.48 2.6-5.29 3.64-2.88 1.66-3.42 1.71-4.24 0.4-0.52-0.83-0.96-2.18-0.97-3-0.03-1.16 0.25-1.24 1.23-0.33 0.79 0.74 1.64 0.83 2.27 0.24 0.55-0.51 2.8-2.29 5-3.96 2.2-1.66 4.22-2.99 4.5-2.95 0.27 0.04 4.1-1.97 8.5-4.46 4.4-2.49 8.17-4.53 8.37-4.53zm-219.07 5.7c1.08 0.29 2.01 1.14 2.07 1.91 0.07 0.76-0.44 1.37-1.12 1.36-0.69 0-1.93-0.4-2.75-0.88-0.83-0.48-1.2-1.34-0.82-1.9 0.37-0.55 1.55-0.78 2.62-0.49zm-11.16 7.7c3.5 1.98 6.81 3.36 7.36 3.09 0.55-0.28 1-0.05 1 0.5 0 0.55-0.45 1.22-1 1.5-0.55 0.27-3.95-1.41-7.54-3.75-3.6-2.34-6.46-4.4-6.36-4.59 0.1-0.18 3.04 1.28 6.54 3.25z"/>
		<path id="Path 8" class="s1" d="m483.51 351.69c-1.27 0.29-1.91 1.16-1.75 2.38 0.13 1.06-0.21 1.93-0.76 1.93-0.55 0-1.16-1.01-1.36-2.25l-0.37-2.25c-0.26 4.37-0.7 4.5-7.61 4.5-4.04 0-7.84 0.34-8.44 0.75-0.73 0.5-1.13 9.14-1.21 26.25-0.08 14.02-0.11 26.06-0.07 26.75 0.05 0.97 6.06 1.25 26.56 1.25 22.67 0 26.57-0.22 27-1.5 0.27-0.82-0.13-4.31-0.9-7.75-0.77-3.44-2.19-7.82-3.14-9.75-1.23-2.46-1.56-4.69-1.13-7.5 0.34-2.2 1.09-4.23 1.67-4.5 0.59-0.27 1.72-3.87 2.53-8 0.81-4.12 1.47-8.96 1.47-10.75 0-2.53-0.55-3.47-2.5-4.25-1.37-0.55-7.9-1-14.5-1h-12c0-3.87-0.34-4.95-0.75-4.88-0.41 0.06-1.65 0.32-2.74 0.57z"/>
		<path id="Path 9" class="s3" d="m520.49 351.19c-0.34 0.72-0.48 2.17-0.31 3.23 0.18 1.05 0.88 2.06 1.57 2.25 0.78 0.2 1.29-0.78 1.35-2.61 0.06-1.62-0.36-3.22-0.94-3.56-0.57-0.35-1.32-0.04-1.67 0.69z"/>
		<path id="Path 10" class="s4" d="m698.25 496c-2.08 1.28-3.61 3.26-4.25 5.5-0.58 2.02-0.64 4.24-0.14 5.25 0.47 0.96 2.16 2.78 3.75 4.03 1.59 1.26 3.9 2.27 5.14 2.25 1.25-0.01 3.36-1.37 4.75-3.03 1.38-1.65 2.5-3.9 2.5-5 0-1.1-0.45-3.13-1-4.5-0.55-1.38-2.01-3.41-3.25-4.52-1.24-1.11-2.7-2.01-3.25-2-0.55 0.02-2.46 0.93-4.25 2.02z"/>
	</g>
</svg>